<?xml version="1.0" encoding="UTF-8" standalone="no"?>
<!-- Created with Inkscape (http://www.inkscape.org/) -->

<svg
    width="81.437134mm"
    height="77.534401mm"
    viewBox="0 0 81.437134 77.534401"
    version="1.1"
    id="svg328"
    inkscape:version="1.2.2 (b0a8486541, 2022-12-01)"
    sodipodi:docname="logo-notext.svg"
    xmlns:inkscape="http://www.inkscape.org/namespaces/inkscape"
    xmlns:sodipodi="http://sodipodi.sourceforge.net/DTD/sodipodi-0.dtd"
    xmlns="http://www.w3.org/2000/svg"
    xmlns:svg="http://www.w3.org/2000/svg">
    <sodipodi:namedview
        id="namedview330"
        pagecolor="#ffffff"
        bordercolor="#666666"
        borderopacity="1.0"
        inkscape:showpageshadow="2"
        inkscape:pageopacity="0.0"
        inkscape:pagecheckerboard="0"
        inkscape:deskcolor="#d1d1d1"
        inkscape:document-units="mm"
        showgrid="false"
        inkscape:zoom="0.77593294"
        inkscape:cx="-9.6657837"
        inkscape:cy="258.39862"
        inkscape:window-width="1728"
        inkscape:window-height="1048"
        inkscape:window-x="0"
        inkscape:window-y="32"
        inkscape:window-maximized="1"
        inkscape:current-layer="layer1" />
    <defs
        id="defs325" />
    <g
        inkscape:label="Layer 1"
        inkscape:groupmode="layer"
        id="layer1"
        transform="translate(-107.61094,-80.578377)">
        <path
            d="m 174.03709,80.584143 c -2.07812,-0.04917 -4.26448,0.232312 -5.8737,0.232312 h -30.02015 c 0,4.670567 1.31007,11.543441 -3.77603,14.088518 -3.02665,1.514358 -7.83363,0.637938 -11.13921,0.637938 v 15.481579 c 0,1.67221 -0.62104,4.85599 0.11357,6.35899 0.29284,0.59886 1.41796,0.59743 1.96322,0.89385 0.97307,0.52938 1.75978,1.44734 2.3375,2.37584 2.52879,4.06343 4.77997,8.32103 7.18254,12.46076 1.7175,2.95936 3.79827,5.91184 5.1426,9.06246 0.9793,2.29523 -0.19449,4.87136 -2.39059,5.97013 -1.60819,0.80447 -3.54452,0.63793 -5.28644,0.63793 h -9.06247 c 0,2.67859 -0.59073,6.32932 1.89538,8.15601 2.60825,1.91631 7.85906,0.90638 10.94293,0.90638 h 38.51522 c 2.20045,0 4.3723,-0.39177 5.37518,-2.64319 1.27818,-2.86957 0.47754,-7.2922 0.47754,-10.38401 v -8.1184 c 0,-1.12997 0.28047,-2.70613 -0.11395,-3.77602 -0.40533,-1.09938 -1.72025,-2.02298 -2.52923,-2.83196 l -5.09757,-5.09757 c -0.73404,-0.73404 -1.5208,-1.82812 -2.45438,-2.30577 -0.83335,-0.42651 -1.90084,0.18756 -2.83196,-0.17663 -1.05217,-0.41159 -1.60084,-1.6348 -2.64319,-1.9824 -0.80749,-0.26905 -2.03166,0.42926 -2.83195,0.60843 -1.80058,0.40309 -3.63061,0.56772 -5.47531,0.44065 -8.26488,-0.56904 -15.42013,-7.34173 -16.69187,-15.4641 -0.37533,-2.39756 -0.32579,-4.81652 0.29535,-7.174319 3.95563,-15.015373 23.58673,-18.750078 32.72999,-6.230512 2.68521,3.677223 3.77073,8.366601 3.27035,12.838491 -0.16878,1.50925 -1.34533,3.45843 -1.19031,4.90871 0.11026,1.03199 1.37974,1.70977 1.79395,2.64319 0.41725,0.94023 -0.0942,1.74603 0.14086,2.64319 0.35003,1.33614 2.53681,3.00626 3.62954,3.77603 V 92.710986 c 0,-2.995393 0.97006,-7.97085 -1.17299,-10.376594 -1.17696,-1.321279 -3.14691,-1.700921 -5.22525,-1.750085 z m -37.78147,1.365118 c -3.85019,3.850198 -8.76155,7.635762 -11.89442,12.083289 3.58557,0 10.2762,1.31969 11.86926,-3.020822 0.54883,-1.495445 0.21388,-3.523586 0.21388,-5.097571 0,-1.212144 0.28263,-2.841226 -0.1888,-3.964896 z m 21.3786,4.493619 c -0.52531,0.01 -1.04563,0.04834 -1.55465,0.11763 -2.82454,0.384464 -5.35504,1.227375 -7.74066,2.81871 -1.77133,1.181469 -3.28624,2.689708 -4.46395,4.464481 -7.76768,11.702639 1.82979,27.927509 15.9809,26.189029 2.45534,-0.3015 4.88884,-1.12796 6.98546,-2.44371 12.21494,-7.66649 9.29292,-26.706355 -4.53124,-30.539335 -1.48055,-0.410502 -3.09976,-0.635766 -4.67586,-0.605859 z m 6.96267,8.385404 c 1.00651,0.02702 1.97813,0.195135 2.23868,0.585569 0.46822,0.701592 0.19433,2.152058 0.19433,2.960957 v 7.74066 c 0,1.05766 0.55309,4.48249 -0.59441,4.98367 -0.80032,0.34947 -4.16569,0.45712 -4.68673,-0.32375 -0.46822,-0.70159 -0.19396,-2.15169 -0.19396,-2.9607 v -7.74065 c 0,-1.057663 -0.55346,-4.483027 0.59405,-4.983937 0.40017,-0.174733 1.44162,-0.288838 2.44812,-0.261811 z m -1.53179,1.658645 v 13.215961 h 2.45438 V 96.486929 Z m -5.37279,1.372111 c 0.94108,0.02366 1.84425,0.1838 2.12914,0.597754 0.41403,0.601701 0.22273,1.681346 0.22273,2.372526 v 5.47531 c 0,1.09238 0.57535,4.48011 -0.76662,4.84857 -0.85544,0.23487 -3.97708,0.42801 -4.51455,-0.3776 -0.37418,-0.56054 -0.19395,-1.56564 -0.19395,-2.20549 v -5.4753 c 0,-1.13411 -0.59611,-4.607792 0.76625,-5.015725 0.43696,-0.130933 1.41595,-0.24379 2.35706,-0.220143 z m -1.6129,1.648685 v 10.195145 h 2.45438 V 99.507725 Z m -4.98075,2.046185 c 0.75701,0.0477 1.47396,0.21882 1.76558,0.65674 0.66456,0.99819 0.19433,3.48703 0.19433,4.66024 0,1.13582 0.55868,4.00542 -0.95247,4.29918 -0.87679,0.1703 -3.78,0.42804 -4.32886,-0.39455 -0.3491,-0.52298 -0.19396,-1.42085 -0.19396,-2.0167 0,-1.71846 -0.64106,-5.00433 0.11358,-6.54812 0.23562,-0.48162 0.93048,-0.51397 1.39682,-0.57229 0.45103,-0.0565 1.24788,-0.13219 2.00489,-0.0844 z m -2.00489,1.72979 v 6.41911 h 2.45438 v -6.41911 z m 24.73266,8.8736 c -1.71147,3.20254 -4.4719,5.5463 -7.55206,7.36319 1.87779,4.01496 5.29492,-0.57471 6.98545,-2.26559 0.73669,-0.73688 1.86034,-1.56421 2.08086,-2.6432 0.22806,-1.1158 -0.58557,-2.01733 -1.51447,-2.45437 z m 1.88798,5.13624 c -1.34766,0 -3.60808,3.19168 -4.53123,4.11483 1.5257,2.16591 3.79139,3.98026 5.66391,5.85278 l 3.96489,3.96489 c 1.11032,1.11032 2.4142,2.98559 3.9649,3.46372 1.8104,0.55829 4.44302,-1.81186 4.26237,-3.65259 -0.13801,-1.40599 -1.63994,-2.47517 -2.56317,-3.39829 l -7.36319,-7.36319 c -0.72689,-0.72686 -2.30071,-2.98215 -3.39829,-2.98215 z m -52.54122,1.97575 c -0.33368,0.006 -0.69158,0.0644 -1.07747,0.18548 -1.96407,0.61606 -2.9946,3.52173 -3.93682,5.16327 -2.78613,4.85387 -5.55689,9.72284 -8.41004,14.53751 -1.12176,1.89291 -3.11671,4.39031 -1.57528,6.59023 1.40623,2.00692 4.62447,1.33929 6.74784,1.33929 h 12.41944 c -0.49561,-0.587 -0.9454,-1.1514 -1.27182,-1.56977 -2.69845,0.44669 -4.89599,-1.52943 -6.02046,-4.26528 -1.9221,-4.65891 0.98871,-16.61585 1.64943,-14.77618 2.20983,6.15025 6.33567,8.22568 8.02065,11.02823 1.56421,2.59879 -0.23933,6.30733 -1.84706,7.2469 -0.44661,-0.57895 -1.01949,-1.3336 -1.6413,-2.2501 -0.67767,-1.36387 0.28283,-5.1034 0.28283,-5.1034 -0.81266,1.61073 -1.07398,2.65395 -1.10992,3.43936 -0.53389,-0.87627 -1.14863,-1.9828 -1.67118,-3.09685 0.0856,0.001 -0.01,-0.11817 0.73823,-4.35747 0,0 -1.25074,1.76903 -1.21098,3.07275 -0.71245,-1.83764 -1.30067,-4.00225 -1.60222,-6.58044 0,0 -0.55416,3.73206 1.50967,8.8246 -0.46131,-0.15161 -1.74474,-0.77706 -2.66746,-1.98351 0.32852,1.40949 1.73676,2.58078 3.2873,3.3371 0.7862,1.69038 1.72074,3.43776 3.2036,5.2226 -0.005,0.002 -0.01,0.003 -0.0147,0.005 1.00585,1.14578 2.13259,1.63305 2.6432,1.8065 h 0.40674 c 1.97352,0 4.95559,0.55588 6.79685,-0.19064 2.95724,-1.19927 1.9426,-4.20303 0.75298,-6.22865 -3.31274,-5.64034 -6.50494,-11.35166 -9.81768,-16.992 -1.10899,-1.88838 -2.24853,-4.44408 -4.58421,-4.40461 z m 27.69705,11.06054 c 1.20171,0.0413 2.40946,0.14049 3.50902,0.14087 0.67041,1.8e-4 1.80751,-0.15903 2.26005,0.47457 0.38044,0.53241 0.19434,1.55086 0.19434,2.16862 v 5.66391 c 0,0.67515 0.24931,1.95495 -0.59442,2.20548 -2.09021,0.62059 -5.15161,0.0601 -7.33511,0.0601 -0.59492,0 -1.83885,0.22948 -2.26043,-0.30274 -0.41593,-0.52526 -0.19395,-1.71213 -0.19395,-2.34045 v -5.85278 c 5.3e-4,-0.87753 -0.10392,-1.78645 0.9473,-2.0119 1.07559,-0.23053 2.27155,-0.24707 3.47326,-0.20577 z m -2.9101,1.84005 v 7.36318 h 7.36319 v -7.36318 z m 14.71049,0.64864 c 0.68048,0.026 1.37116,0.10656 1.90385,0.10656 h 8.49587 c 0.50125,0 4.27561,-0.18524 2.90586,1.18147 -0.7061,0.7044 -2.74216,0.32892 -3.66107,0.32892 -3.51273,0 -7.68741,0.62652 -11.131,-0.0431 -0.69593,-0.13537 -1.20749,-0.9778 -0.35732,-1.35368 0.49268,-0.21768 1.16327,-0.2461 1.84375,-0.22014 z m -0.45689,4.37786 c 0.50216,0.0141 1.01194,0.0712 1.41675,0.0712 2.00128,0 4.04357,-0.11914 6.04058,0.008 0.6066,0.0387 1.65319,0.65677 0.83081,1.30832 -0.52486,0.41572 -1.71194,0.19396 -2.34008,0.19396 -2.16533,0 -5.07797,0.51575 -7.16319,-0.0601 -0.68647,-0.18956 -0.86321,-1.01575 -0.15672,-1.33672 0.37533,-0.17039 0.86996,-0.19888 1.37211,-0.18475 z m -11.92382,5.90522 c 1.41711,0.0383 2.88281,0.2075 4.08939,0.20761 0.67307,0 1.81411,-0.18869 2.26006,0.45945 0.37665,0.54714 0.19433,1.55465 0.19433,2.18374 v 5.66391 c 0,0.67516 0.24931,1.95495 -0.59442,2.20549 -2.0902,0.62059 -5.15161,0.0601 -7.33511,0.0601 -0.59492,0 -1.83885,0.22948 -2.26042,-0.30274 -0.39156,-0.49429 -0.19396,-1.56223 -0.19396,-2.15166 v -5.85278 c 0,-0.78956 -0.18906,-1.89752 0.76625,-2.18374 0.51378,-0.15397 1.08415,-0.23631 1.68445,-0.27289 0.45021,-0.0274 0.91708,-0.0293 1.38943,-0.0166 z m -2.32975,1.9068 v 7.36319 h 7.36319 v -7.36319 z m 14.71048,0.64864 c 0.68046,0.026 1.37116,0.10657 1.90386,0.10657 h 8.49586 c 0.50126,0 4.27562,-0.18525 2.90586,1.18146 -0.70609,0.7044 -2.74215,0.32892 -3.66106,0.32892 -3.51273,0 -7.68742,0.62652 -11.13101,-0.0431 -0.69592,-0.13537 -1.20748,-0.9778 -0.35731,-1.35368 0.49275,-0.21768 1.1633,-0.2461 1.84375,-0.22014 z m -0.4635,4.37971 c 0.50276,0.0136 1.01284,0.0693 1.42336,0.0693 2.0496,0 4.18582,-0.17472 6.22681,0.011 0.61831,0.0563 1.34578,0.74578 0.64459,1.30502 -0.52242,0.41667 -1.71385,0.19432 -2.34008,0.19432 -2.16684,0 -5.07585,0.51424 -7.1632,-0.0601 -0.69044,-0.18993 -0.9006,-1.01612 -0.17184,-1.33672 0.38232,-0.16803 0.87786,-0.19645 1.38059,-0.1829 z"
            fill="#89b264"
            id="path319"
            style="stroke-width:0.264891" />
    </g>
</svg>