<?xml version="1.0" encoding="UTF-8" standalone="no"?>
<svg
   width="859.39"
   height="326.77"
   version="1.1"
   viewBox="0 0 858.39 326.39"
   xml:space="preserve"
   id="svg349"
   sodipodi:docname="logo.svg"
   inkscape:version="1.2.2 (b0a8486541, 2022-12-01)"
   xmlns:inkscape="http://www.inkscape.org/namespaces/inkscape"
   xmlns:sodipodi="http://sodipodi.sourceforge.net/DTD/sodipodi-0.dtd"
   xmlns="http://www.w3.org/2000/svg"
   xmlns:svg="http://www.w3.org/2000/svg"><defs
     id="defs353" /><sodipodi:namedview
     id="namedview351"
     pagecolor="#ffffff"
     bordercolor="#666666"
     borderopacity="1.0"
     inkscape:showpageshadow="2"
     inkscape:pageopacity="0.0"
     inkscape:pagecheckerboard="0"
     inkscape:deskcolor="#d1d1d1"
     showgrid="false"
     inkscape:zoom="0.59506981"
     inkscape:cx="473.05374"
     inkscape:cy="199.1363"
     inkscape:window-width="1728"
     inkscape:window-height="1048"
     inkscape:window-x="0"
     inkscape:window-y="32"
     inkscape:window-maximized="1"
     inkscape:current-layer="svg349" /><path
     d="m283.58 17.056c-7.8452-0.18562-16.099 0.87701-22.174 0.87701h-113.33c0 17.632 4.9457 43.578-14.255 53.186-11.426 5.7169-29.573 2.4083-42.052 2.4083v58.445c0 6.3128-2.3445 18.332 0.42875 24.006 1.1055 2.2608 5.353 2.2554 7.4114 3.3744 3.6735 1.9985 6.6434 5.4639 8.8244 8.9691 9.5465 15.34 18.045 31.413 27.115 47.041 6.4838 11.172 14.339 22.318 19.414 34.212 3.697 8.6648-0.73421 18.39-9.0248 22.538-6.0711 3.037-13.381 2.4083-19.957 2.4083h-34.212c0 10.112-2.2301 23.894 7.1553 30.79 9.8465 7.2343 29.669 3.4217 41.311 3.4217h145.4c8.307 0 16.506-1.479 20.292-9.9784 4.8253-10.833 1.8028-27.529 1.8028-39.201v-30.648c0-4.2658 1.0588-10.216-0.43017-14.255-1.5302-4.1503-6.4942-7.637-9.5482-10.691l-19.244-19.244c-2.7711-2.7711-5.7412-6.9014-9.2656-8.7046-3.146-1.6101-7.1759 0.70808-10.691-0.66679-3.9721-1.5538-6.0434-6.1716-9.9784-7.4838-3.0484-1.0157-7.6698 1.6205-10.691 2.2969-6.7974 1.5217-13.706 2.1432-20.67 1.6635-31.201-2.1482-58.213-27.716-63.014-58.379-1.4169-9.0511-1.2299-18.183 1.115-27.084 14.933-56.685 89.043-70.784 123.56-23.521 10.137 13.882 14.235 31.585 12.346 48.467-0.63718 5.6976-5.0788 13.056-4.4936 18.531 0.41626 3.8959 5.2087 6.4546 6.7724 9.9784 1.5752 3.5495-0.35558 6.5915 0.53178 9.9784 1.3214 5.0441 9.5768 11.349 13.702 14.255v-101.21c0-11.308 3.6621-30.091-4.4282-39.173-4.4432-4.988-11.88-6.4212-19.726-6.6068zm-142.63 5.1535c-14.535 14.535-33.076 28.826-44.903 45.616 13.536 0 38.794 4.982 44.808-11.404 2.0719-5.6455 0.80741-13.302 0.80741-19.244 0-4.576 1.067-10.726-0.71274-14.968zm80.707 16.964c-1.9831 0.03764-3.9474 0.18251-5.869 0.44407-10.663 1.4514-20.216 4.6335-29.222 10.641-6.687 4.4602-12.406 10.154-16.852 16.854-29.324 44.179 6.9077 105.43 60.33 98.867 9.2692-1.1382 18.456-4.2582 26.371-9.2253 46.113-28.942 35.082-100.82-17.106-115.29-5.5893-1.5497-11.702-2.4001-17.652-2.2872zm26.285 31.656c3.7997 0.10201 7.4677 0.73666 8.4513 2.2106 1.7676 2.6486 0.73363 8.1243 0.73363 11.178v29.222c0 3.9928 2.088 16.922-2.244 18.814-3.0213 1.3193-15.726 1.7257-17.693-1.2222-1.7676-2.6486-0.73222-8.1229-0.73222-11.177v-29.222c0-3.9928-2.0894-16.924 2.2426-18.815 1.5107-0.65964 5.4423-1.0904 9.242-0.98837zm-5.7827 6.2616v49.892h9.2656v-49.892zm-20.283 5.1799c3.5527 0.08931 6.9623 0.69387 8.0378 2.2566 1.563 2.2715 0.84082 6.3473 0.84082 8.9566v20.67c0 4.1239 2.172 16.913-2.8941 18.304-3.2294 0.88666-15.014 1.6158-17.043-1.4255-1.4126-2.1161-0.73221-5.9105-0.73221-8.326v-20.67c0-4.2814-2.2504-17.395 2.8927-18.935 1.6496-0.49429 5.3454-0.92034 8.8982-0.83107zm-6.0889 6.224v38.488h9.2656v-38.488zm-18.803 7.7246c2.8578 0.18023 5.5644 0.82608 6.6653 2.4793 2.5088 3.7683 0.73362 13.164 0.73362 17.593 0 4.2879 2.1091 15.121-3.5957 16.23-3.31 0.6429-14.27 1.6159-16.342-1.4895-1.3179-1.9743-0.73222-5.3639-0.73222-7.6133 0-6.4874-2.4201-18.892 0.42875-24.72 0.8895-1.8182 3.5127-1.9403 5.2732-2.1605 1.7027-0.21312 4.7109-0.49903 7.5687-0.3188zm-7.5687 6.5302v24.233h9.2656v-24.233zm93.369 33.499c-6.461 12.09-16.882 20.938-28.51 27.797 7.0889 15.157 19.989-2.1696 26.371-8.5529 2.7811-2.7818 7.023-5.9051 7.8555-9.9784 0.86098-4.2123-2.2106-7.6157-5.7173-9.2656zm7.1274 19.39c-5.0876 0-13.621 12.049-17.106 15.534 5.7597 8.1766 14.313 15.026 21.382 22.095l14.968 14.968c4.1916 4.1916 9.1139 11.271 14.968 13.076 6.8345 2.1076 16.773-6.84 16.091-13.789-0.52102-5.3078-6.191-9.3441-9.6763-12.829l-27.797-27.797c-2.7441-2.744-8.6855-11.258-12.829-11.258zm-198.35 7.4587c-1.2597 0.0212-2.6108 0.24326-4.0676 0.70022-7.4146 2.3257-11.305 13.295-14.862 19.492-10.518 18.324-20.978 36.705-31.749 54.881-4.2348 7.146-11.766 16.574-5.9469 24.879 5.3087 7.5764 17.458 5.056 25.474 5.056h46.885c-1.871-2.216-3.569-4.3467-4.8013-5.9261-10.187 1.6863-18.483-5.7738-22.728-16.102-7.2562-17.588 3.7325-62.727 6.2268-55.782 8.3424 23.218 23.918 31.053 30.279 41.633 5.9051 9.8108-0.90351 23.811-6.9729 27.358-1.686-2.1856-3.8487-5.0345-6.1961-8.4944-2.5583-5.1488 1.0677-19.266 1.0677-19.266-3.0679 6.0807-4.0544 10.019-4.1901 12.984-2.0155-3.308-4.3362-7.4853-6.3089-11.691 0.32294 5e-3 -0.0372-0.44612 2.7869-16.45 0 0-4.7217 6.6783-4.5716 11.6-2.6896-6.9373-4.9102-15.109-6.0486-24.842 0 0-2.092 14.089 5.6992 33.314-1.7415-0.57233-6.5866-2.9335-10.07-7.488 1.2402 5.321 6.5565 9.7428 12.41 12.598 2.968 6.3814 6.496 12.978 12.094 19.716-0.0182 6e-3 -0.0374 0.0116-0.0556 0.0181 3.7972 4.3255 8.0508 6.165 9.9784 6.8198h1.5355c7.4503 0 18.708 2.0985 25.659-0.71969 11.164-4.5274 7.3336-15.867 2.8426-23.514-12.506-21.293-24.557-42.854-37.063-64.147-4.1866-7.1289-8.4885-16.777-17.306-16.628zm104.56 41.755c4.5366 0.15592 9.096 0.53034 13.247 0.53177 2.5309 7e-4 6.8236-0.60035 8.532 1.7916 1.4362 2.0099 0.73363 5.8547 0.73363 8.1868v21.382c0 2.5488 0.9412 7.3802-2.244 8.326-7.8908 2.3428-19.448 0.22691-27.691 0.22691-2.2459 0-6.9419 0.86632-8.5334-1.1429-1.5702-1.9829-0.73222-6.4635-0.73222-8.8355v-22.095c2e-3 -3.3128-0.39231-6.7441 3.5762-7.5952 4.0605-0.87026 8.5754-0.9327 13.112-0.77678zm-10.986 6.9464v27.797h27.797v-27.797zm55.534 2.4487c2.5689 0.098 5.1763 0.40231 7.1873 0.40231h32.073c1.8923 0 16.141-0.69933 10.97 4.4602-2.6656 2.6592-10.352 1.2417-13.821 1.2417-13.261 0-29.021 2.3652-42.021-0.16286-2.6272-0.51104-4.5584-3.6913-1.3489-5.1103 1.8599-0.82178 4.3915-0.92906 6.9604-0.83106zm-1.7248 16.527c1.8957 0.0534 3.8202 0.26867 5.3484 0.26867 7.5551 0 15.265-0.44976 22.804 0.0307 2.29 0.14612 6.241 2.4794 3.1364 4.9391-1.9814 1.5694-6.4628 0.73223-8.8341 0.73223-8.1744 0-19.17 1.947-27.042-0.22691-2.5915-0.71559-3.2587-3.8346-0.59162-5.0463 1.4169-0.64324 3.2842-0.75079 5.1799-0.69744zm-45.014 22.293c5.3498 0.14445 10.883 0.78334 15.438 0.78374 2.5409 0 6.8485-0.71232 8.532 1.7345 1.4219 2.0655 0.73363 5.869 0.73363 8.2439v21.382c0 2.5488 0.9412 7.3802-2.244 8.326-7.8908 2.3428-19.448 0.2269-27.691 0.2269-2.2459 0-6.9419 0.86633-8.5334-1.1429-1.4782-1.866-0.73222-5.8976-0.73222-8.1228v-22.095c0-2.9807-0.71374-7.1634 2.8927-8.2439 1.9396-0.58125 4.0928-0.89211 6.359-1.0302 1.6996-0.10351 3.4621-0.11078 5.2453-0.0626zm-8.7951 7.1984v27.797h27.797v-27.797zm55.534 2.4487c2.5688 0.098 5.1763 0.40231 7.1873 0.40231h32.073c1.8923 0 16.141-0.69932 10.97 4.4602-2.6656 2.6592-10.352 1.2417-13.821 1.2417-13.261 0-29.021 2.3652-42.021-0.16287-2.6272-0.51103-4.5584-3.6913-1.3489-5.1103 1.8602-0.82178 4.3916-0.92907 6.9604-0.83106zm-1.7498 16.534c1.898 0.0512 3.8236 0.26171 5.3734 0.26171 7.7375 0 15.802-0.65958 23.507 0.0417 2.3342 0.2124 5.0805 2.8154 2.4334 4.9266-1.9722 1.573-6.47 0.73361-8.8341 0.73361-8.1801 0-19.162 1.9413-27.042-0.2269-2.6065-0.71702-3.3999-3.836-0.64871-5.0463 1.4433-0.63434 3.314-0.74161 5.2119-0.69048z"
     fill="#89b264"
     id="path319" /><g
     fill="#89b264"
     stroke-width="0.99999"
     aria-label="Climate RAG"
     id="g341"
     style="display:none"><path
       d="m 456.27,142.23 q -2.2082,1.6562 -6.6247,3.8644 -4.2785,2.0702 -10.213,3.5884 -5.9346,1.5182 -12.973,1.3802 -11.731,-0.13802 -21.116,-4.1404 -9.247,-4.0024 -15.872,-10.903 -6.4867,-7.0388 -9.9371,-16.01 -3.4504,-9.109 -3.4504,-19.322 0,-11.317 3.5884,-20.84 3.5884,-9.523 10.213,-16.424 6.6247,-7.0388 15.596,-10.903 9.109,-3.8644 20.012,-3.8644 9.247,0 16.7,2.4843 7.453,2.4843 12.559,5.6586 l -5.9346,14.216 q -4.0024,-2.7603 -9.9371,-5.2446 -5.7966,-2.6223 -12.973,-2.6223 -6.9008,0 -13.111,2.7603 -6.2107,2.7603 -11.041,7.8669 -4.6925,4.9685 -7.4528,11.593 -2.6223,6.6247 -2.6223,14.492 0,7.8673 2.4843,14.63 2.4843,6.7627 7.0388,11.731 4.5545,4.8305 11.041,7.5908 6.4867,2.7603 14.492,2.7603 7.7288,0 13.525,-2.3462 5.9346,-2.3463 9.661,-5.3826 z"
       style="font-variation-settings:'wght' 522"
       id="path321" /><path
       d="m 474.9,42.587 h 14.492 v 107.38 H 474.9 Z"
       style="font-variation-settings:'wght' 522"
       id="path323" /><path
       d="m 511.06,91.997 h 14.492 v 57.966 H 511.06 Z m -0.69008,-20.702 q 0,-3.4504 2.6223,-5.6586 2.7603,-2.2082 5.7966,-2.2082 3.1743,0 5.6586,2.3463 2.4843,2.2082 2.4843,5.5206 0,3.4504 -2.4843,5.6586 -2.4843,2.0702 -5.6586,2.0702 -3.0363,0 -5.7966,-2.0702 -2.6223,-2.2082 -2.6223,-5.6586 z"
       style="font-variation-settings:'wght' 522"
       id="path325" /><path
       d="m 560.33,91.997 1.2421,12.283 -0.55206,-0.9661 q 3.1744,-6.4867 8.971,-10.075 5.7966,-3.5883 13.387,-3.5884 4.8305,0 8.5569,1.5182 3.7264,1.3802 6.2107,4.2785 2.4843,2.7603 3.3124,6.9007 l -0.82809,0.41405 q 3.5884,-6.2107 9.247,-9.661 5.7966,-3.4504 12.145,-3.4504 8.5569,0 13.525,4.8305 5.1066,4.8305 5.2446,12.421 v 43.061 h -14.354 v -37.54 q -0.13801,-4.2785 -1.9322,-7.1768 -1.7942,-2.8983 -6.4867,-3.1744 -4.9685,0 -8.833,3.1744 -3.7264,3.0363 -5.7966,7.8668 -1.9322,4.8305 -2.0702,10.351 v 26.499 h -14.492 v -37.54 q -0.13802,-4.2785 -2.0702,-7.1768 -1.9322,-2.8983 -6.6247,-3.1744 -4.9685,0 -8.6949,3.1744 -3.5884,3.0363 -5.6586,8.0049 -2.0702,4.8305 -2.0702,10.213 v 26.499 h -14.492 v -57.966 z"
       style="font-variation-settings:'wght' 522"
       id="path327" /><path
       d="m 686.62,151.34 q -8.1429,0 -14.768,-3.3124 -6.6247,-3.4504 -10.489,-10.213 -3.8644,-6.7627 -3.8644,-16.838 0,-9.661 4.0024,-16.7 4.0024,-7.1768 10.765,-10.903 6.7627,-3.8644 14.63,-3.8644 8.2809,0 13.525,3.4504 5.3826,3.4504 8.2809,8.1429 l -0.82809,2.2082 1.3802,-11.317 h 13.387 v 57.966 h -14.492 v -14.492 l 1.5182,3.5884 q -0.55206,0.96611 -2.3463,3.0363 -1.7942,1.9322 -4.6925,4.1404 -2.8983,2.2082 -6.9008,3.7264 -4.0024,1.3802 -9.109,1.3802 z m 4.0024,-11.869 q 4.4165,0 8.0049,-1.5182 3.5884,-1.6562 5.9346,-4.5545 2.4843,-3.0363 3.5884,-7.1768 v -12.145 q -1.1041,-3.7264 -3.7264,-6.4867 -2.6223,-2.8983 -6.3487,-4.5545 -3.5884,-1.6562 -8.0049,-1.6562 -4.8305,0 -8.971,2.4843 -4.1404,2.3462 -6.6247,6.6247 -2.3462,4.2785 -2.3462,9.7991 0,5.3826 2.4843,9.7991 2.6223,4.4165 6.7627,6.9008 4.2785,2.4843 9.247,2.4843 z"
       style="font-variation-settings:'wght' 522"
       id="path329" /><path
       d="m 749.83,66.602 h 14.492 v 25.533 h 15.458 v 11.317 h -15.458 v 46.511 H 749.83 V 103.452 H 739.617 V 92.135 h 10.213 z"
       style="font-variation-settings:'wght' 522"
       id="path331" /><path
       d="m 822.29,151.34 q -9.9371,0 -17.252,-3.8644 -7.1768,-4.0024 -11.041,-10.903 -3.8644,-7.0388 -3.8644,-16.01 0,-8.6949 4.2785,-15.596 4.4165,-7.0388 11.731,-11.179 7.4528,-4.2785 16.562,-4.2785 11.731,0 19.322,6.9008 7.7288,6.7627 10.351,19.046 l -47.063,16.148 -3.3124,-8.2809 37.402,-13.525 -3.0363,1.9322 q -1.5182,-4.2785 -5.1066,-7.4528 -3.5884,-3.3124 -9.661,-3.3124 -5.1066,0 -8.971,2.4843 -3.8644,2.3463 -6.0727,6.6247 -2.2082,4.1404 -2.2082,9.661 0,5.7966 2.3463,10.213 2.3462,4.2785 6.4867,6.7627 4.2785,2.3462 9.523,2.3462 3.5884,0 6.9008,-1.2421 3.4504,-1.3802 6.4867,-3.4504 l 6.6247,10.627 q -4.5545,2.8983 -9.9371,4.6925 -5.3826,1.6562 -10.489,1.6562 z"
       style="font-variation-settings:'wght' 522"
       id="path333" /><path
       d="m 409.9,174.46 q 8.0049,0 14.63,2.0702 6.7627,2.0702 11.593,6.2107 4.8305,4.0024 7.4528,9.9371 2.7603,5.9346 2.7603,13.525 0,5.9346 -1.7942,11.869 -1.7942,5.7966 -5.9346,10.489 -4.0024,4.6925 -10.489,7.5908 -6.4867,2.8983 -16.148,2.8983 h -14.63 v 35.608 h -15.044 v -100.2 z m 1.7942,50.099 q 5.6586,0 9.247,-1.6562 3.7264,-1.7942 5.7966,-4.4165 2.2082,-2.7603 3.0363,-5.7966 0.96611,-3.1744 0.96611,-5.9346 0,-2.7602 -0.96611,-5.7966 -0.82809,-3.0363 -2.8983,-5.7966 -2.0702,-2.7603 -5.6586,-4.4165 -3.4504,-1.7942 -8.6949,-1.7942 h -15.182 v 35.608 z m 16.976,8.833 25.947,41.266 h -17.528 l -26.223,-40.852 z"
       style="font-variation-settings:'wght' 522"
       id="path335" /><path
       d="m 463.86,274.66 44.165,-104.34 h 0.82809 l 44.165,104.34 h -17.252 l -31.881,-80.739 10.765,-7.1768 -36.022,87.916 z m 27.051,-37.54 h 35.332 l 5.1066,12.973 h -44.993 z"
       style="font-variation-settings:'wght' 522"
       id="path337" /><path
       d="m 646.27,265.69 q -2.0702,1.7942 -5.7966,3.5884 -3.7264,1.7942 -8.4189,3.3124 -4.6925,1.3802 -9.523,2.2082 -4.8305,0.9661 -9.109,0.9661 -12.145,0 -21.944,-3.7264 -9.661,-3.7264 -16.562,-10.351 -6.7627,-6.6247 -10.489,-15.458 -3.5884,-8.971 -3.5884,-19.46 0,-12.973 4.0024,-22.91 4.1404,-9.9371 11.179,-16.7 7.1768,-6.9008 16.562,-10.351 9.385,-3.4504 19.598,-3.4504 8.971,0 16.562,2.0702 7.7288,2.0702 13.387,5.2446 l -4.9685,13.94 q -2.7603,-1.6562 -6.9008,-3.0363 -4.0024,-1.3802 -8.2809,-2.2082 -4.2785,-0.9661 -7.8668,-0.9661 -8.695,0 -15.734,2.6223 -6.9008,2.4843 -11.869,7.3148 -4.9685,4.8305 -7.5908,11.731 -2.6223,6.7627 -2.6223,15.32 0,8.0049 2.6223,14.492 2.7603,6.4867 7.7288,11.179 4.9685,4.6923 11.731,7.3148 6.9008,2.4843 15.32,2.4843 4.8305,0 9.385,-0.82809 4.6925,-0.9661 8.0049,-2.8983 v -17.942 h -19.322 v -14.492 h 34.504 z"
       style="font-variation-settings:'wght' 522"
       id="path339" /></g><text
     x="368.21707"
     y="149.96312"
     fill="none"
     font-family="'Josefin Sans'"
     font-size="138.02px"
     letter-spacing="0px"
     stroke-width=".99999"
     word-spacing="0px"
     style="font-variant-caps:normal;font-variant-east-asian:normal;font-variant-ligatures:normal;font-variant-numeric:normal;line-height:1.25;fill:#89b264;fill-opacity:1;opacity:0"
     xml:space="preserve"
     id="text347"><tspan
       x="368.21707"
       y="149.96312"
       style="font-variant-caps:normal;font-variant-east-asian:normal;font-variant-ligatures:normal;font-variant-numeric:normal;font-variation-settings:'wght' 522;fill:#89b264;fill-opacity:1"
       id="tspan343">Climate</tspan><tspan
       x="368.21707"
       y="323.82968"
       dy="-49.171059"
       style="font-variant-caps:normal;font-variant-east-asian:normal;font-variant-ligatures:normal;font-variant-numeric:normal;font-variation-settings:'wght' 522;fill:#89b264;fill-opacity:1"
       id="tspan345">RAG</tspan></text><g
     aria-label="ClimateRAG"
     id="text347-2"
     style="font-size:138.02px;line-height:1.25;font-family:'Josefin Sans';letter-spacing:0px;word-spacing:0px;fill:#89b264;stroke-width:0.99999"><path
       d="m 456.27383,142.234 q -2.20832,1.65624 -6.62496,3.86456 -4.27862,2.0703 -10.21348,3.58852 -5.93486,1.51822 -12.97388,1.3802 -11.7317,-0.13802 -21.11706,-4.1406 -9.24734,-4.00258 -15.8723,-10.90358 -6.48694,-7.03902 -9.93744,-16.01032 -3.4505,-9.10932 -3.4505,-19.3228 0,-11.317642 3.58852,-20.841023 3.58852,-9.52338 10.21348,-16.42438 6.62496,-7.03902 15.59626,-10.903581 9.10932,-3.86456 20.0129,-3.86456 9.24734,0 16.70042,2.48436 7.45308,2.484361 12.55982,5.658821 l -5.93486,14.21606 q -4.00258,-2.7604 -9.93744,-5.24476 -5.79684,-2.62238 -12.97388,-2.62238 -6.901,0 -13.1119,2.7604 -6.2109,2.7604 -11.0416,7.86714 -4.69268,4.96872 -7.45308,11.593681 -2.62238,6.62496 -2.62238,14.4921 0,7.867142 2.48436,14.630122 2.48436,6.76298 7.03902,11.7317 4.55466,4.8307 11.0416,7.5911 6.48694,2.7604 14.4921,2.7604 7.72912,0 13.52596,-2.34634 5.93486,-2.34634 9.6614,-5.38278 z"
       style="font-variation-settings:'wght' 522"
       id="path1736" /><path
       d="m 474.90649,42.583556 h 14.4921 V 149.96312 h -14.4921 z"
       style="font-variation-settings:'wght' 522"
       id="path1738" /><path
       d="m 511.06761,91.994718 h 14.4921 v 57.968402 h -14.4921 z m -0.6901,-20.703001 q 0,-3.4505 2.62238,-5.65882 2.7604,-2.20832 5.79684,-2.20832 3.17446,0 5.65882,2.34634 2.48436,2.20832 2.48436,5.5208 0,3.4505 -2.48436,5.65882 -2.48436,2.0703 -5.65882,2.0703 -3.03644,0 -5.79684,-2.0703 -2.62238,-2.20832 -2.62238,-5.65882 z"
       style="font-variation-settings:'wght' 522"
       id="path1740" /><path
       d="m 560.34063,91.994718 1.24218,12.283782 -0.55208,-0.96614 q 3.17446,-6.486942 8.9713,-10.075462 5.79684,-3.58852 13.38794,-3.58852 4.8307,0 8.55724,1.51822 3.72654,1.3802 6.2109,4.27862 2.48436,2.7604 3.31248,6.901002 l -0.82812,0.41406 q 3.58852,-6.210902 9.24734,-9.661402 5.79684,-3.4505 12.14576,-3.4505 8.55724,0 13.52596,4.8307 5.10674,4.8307 5.24476,12.421802 v 43.06224 h -14.35408 v -37.54144 q -0.13802,-4.27862 -1.93228,-7.17704 -1.79426,-2.89842 -6.48694,-3.17446 -4.96872,0 -8.83328,3.17446 -3.72654,3.03644 -5.79684,7.86714 -1.93228,4.8307 -2.0703,10.3515 v 26.49984 h -14.4921 v -37.54144 q -0.13802,-4.27862 -2.0703,-7.17704 -1.93228,-2.89842 -6.62496,-3.17446 -4.96872,0 -8.69526,3.17446 -3.58852,3.03644 -5.65882,8.00516 -2.0703,4.8307 -2.0703,10.21348 v 26.49984 h -14.4921 V 91.994718 Z"
       style="font-variation-settings:'wght' 522"
       id="path1742" /><path
       d="m 686.62889,151.34332 q -8.14318,0 -14.76814,-3.31248 -6.62496,-3.4505 -10.48952,-10.21348 -3.86456,-6.76298 -3.86456,-16.83844 0,-9.6614 4.00258,-16.70042 4.00258,-7.177042 10.76556,-10.903582 6.76298,-3.86456 14.63012,-3.86456 8.2812,0 13.52596,3.4505 5.38278,3.4505 8.2812,8.143182 l -0.82812,2.20832 1.3802,-11.317642 h 13.38794 v 57.968402 h -14.4921 v -14.4921 l 1.51822,3.58852 q -0.55208,0.96614 -2.34634,3.03644 -1.79426,1.93228 -4.69268,4.1406 -2.89842,2.20832 -6.901,3.72654 -4.00258,1.3802 -9.10932,1.3802 z m 4.00258,-11.86972 q 4.41664,0 8.00516,-1.51822 3.58852,-1.65624 5.93486,-4.55466 2.48436,-3.03644 3.58852,-7.17704 v -12.14576 q -1.10416,-3.72654 -3.72654,-6.48694 -2.62238,-2.89842 -6.34892,-4.55466 -3.58852,-1.65624 -8.00516,-1.65624 -4.8307,0 -8.9713,2.48436 -4.1406,2.34634 -6.62496,6.62496 -2.34634,4.27862 -2.34634,9.79942 0,5.38278 2.48436,9.79942 2.62238,4.41664 6.76298,6.901 4.27862,2.48436 9.24734,2.48436 z"
       style="font-variation-settings:'wght' 522"
       id="path1744" /><path
       d="m 749.84211,66.599037 h 14.4921 v 25.533701 h 15.45824 v 11.317642 h -15.45824 v 46.51274 h -14.4921 V 103.45038 H 739.62862 V 92.132738 h 10.21349 z"
       style="font-variation-settings:'wght' 522"
       id="path1746" /><path
       d="m 822.3026,151.34332 q -9.93744,0 -17.2525,-3.86456 -7.17704,-4.00258 -11.0416,-10.90358 -3.86456,-7.03902 -3.86456,-16.01032 0,-8.69526 4.27862,-15.59626 4.41664,-7.039022 11.7317,-11.179622 7.45308,-4.27862 16.5624,-4.27862 11.7317,0 19.3228,6.901 7.72912,6.762982 10.3515,19.046762 l -47.06482,16.14834 -3.31248,-8.2812 37.40342,-13.52596 -3.03644,1.93228 q -1.51822,-4.27862 -5.10674,-7.45308 -3.58852,-3.31248 -9.6614,-3.31248 -5.10674,0 -8.9713,2.48436 -3.86456,2.34634 -6.07288,6.62496 -2.20832,4.1406 -2.20832,9.6614 0,5.79684 2.34634,10.21348 2.34634,4.27862 6.48694,6.76298 4.27862,2.34634 9.52338,2.34634 3.58852,0 6.901,-1.24218 3.4505,-1.3802 6.48694,-3.4505 l 6.62496,10.62754 q -4.55466,2.89842 -9.93744,4.69268 -5.38278,1.65624 -10.48952,1.65624 z"
       style="font-variation-settings:'wght' 522"
       id="path1748" /><path
       d="m 409.89911,174.4561 q 8.00516,0 14.63012,2.0703 6.76298,2.0703 11.59368,6.2109 4.8307,4.00258 7.45308,9.93744 2.7604,5.93486 2.7604,13.52596 0,5.93486 -1.79426,11.86972 -1.79426,5.79684 -5.93486,10.48952 -4.00258,4.69268 -10.48952,7.5911 -6.48694,2.89842 -16.14834,2.89842 h -14.63012 v 35.60916 H 382.29511 V 174.4561 Z m 1.79426,50.10126 q 5.65882,0 9.24734,-1.65624 3.72654,-1.79426 5.79684,-4.41664 2.20832,-2.7604 3.03644,-5.79684 0.96614,-3.17446 0.96614,-5.93486 0,-2.7604 -0.96614,-5.79684 -0.82812,-3.03644 -2.89842,-5.79684 -2.0703,-2.7604 -5.65882,-4.41664 -3.4505,-1.79426 -8.69526,-1.79426 h -15.1822 v 35.60916 z m 16.97646,8.83328 25.94776,41.26798 h -17.52854 l -26.2238,-40.85392 z"
       style="font-variation-settings:'wght' 522"
       id="path1750" /><path
       d="m 463.86498,274.65862 44.1664,-104.34312 h 0.82812 l 44.16641,104.34312 h -17.2525 l -31.88263,-80.7417 10.76556,-7.17704 -36.02322,87.91874 z m 27.05192,-37.54144 h 35.33313 l 5.10674,12.97388 h -44.99453 z"
       style="font-variation-settings:'wght' 522"
       id="path1752" /><path
       d="m 646.27877,265.68732 q -2.0703,1.79426 -5.79684,3.58852 -3.72654,1.79426 -8.41922,3.31248 -4.69268,1.3802 -9.52338,2.20832 -4.8307,0.96614 -9.10932,0.96614 -12.14576,0 -21.94518,-3.72654 -9.6614,-3.72654 -16.5624,-10.3515 -6.76298,-6.62496 -10.48952,-15.45824 -3.58852,-8.9713 -3.58852,-19.46082 0,-12.97388 4.00258,-22.91132 4.1406,-9.93744 11.17962,-16.70042 7.17704,-6.901 16.5624,-10.3515 9.38536,-3.4505 19.59884,-3.4505 8.9713,0 16.5624,2.0703 7.72912,2.0703 13.38794,5.24476 l -4.96872,13.94002 q -2.7604,-1.65624 -6.901,-3.03644 -4.00258,-1.3802 -8.2812,-2.20832 -4.27862,-0.96614 -7.86714,-0.96614 -8.69526,0 -15.73428,2.62238 -6.901,2.48436 -11.86972,7.31506 -4.96872,4.8307 -7.5911,11.7317 -2.62238,6.76298 -2.62238,15.32022 0,8.00516 2.62238,14.4921 2.7604,6.48694 7.72912,11.17962 4.96872,4.69268 11.7317,7.31506 6.901,2.48436 15.32022,2.48436 4.8307,0 9.38536,-0.82812 4.69268,-0.96614 8.00516,-2.89842 v -17.9426 h -19.3228 v -14.4921 h 34.505 z"
       style="font-variation-settings:'wght' 522"
       id="path1754" /></g></svg>
