<?xml version="1.0" encoding="UTF-8" standalone="no"?>
<!-- Generator: Adobe Illustrator 27.5.0, SVG Export Plug-In . SVG Version: 6.00 Build 0)  -->

<svg
   version="1.1"
   id="PRINT"
   x="0px"
   y="0px"
   viewBox="0 0 465.52389 465.98559"
   xml:space="preserve"
   sodipodi:docname="many-sources.svg"
   width="465.5239"
   height="465.9856"
   inkscape:version="1.2.2 (b0a8486541, 2022-12-01)"
   xmlns:inkscape="http://www.inkscape.org/namespaces/inkscape"
   xmlns:sodipodi="http://sodipodi.sourceforge.net/DTD/sodipodi-0.dtd"
   xmlns="http://www.w3.org/2000/svg"
   xmlns:svg="http://www.w3.org/2000/svg"><defs
   id="defs19731" /><sodipodi:namedview
   id="namedview19729"
   pagecolor="#ffffff"
   bordercolor="#666666"
   borderopacity="1.0"
   inkscape:showpageshadow="2"
   inkscape:pageopacity="0.0"
   inkscape:pagecheckerboard="0"
   inkscape:deskcolor="#d1d1d1"
   showgrid="false"
   inkscape:zoom="0.72942258"
   inkscape:cx="299.55201"
   inkscape:cy="300.92296"
   inkscape:window-width="1728"
   inkscape:window-height="1048"
   inkscape:window-x="0"
   inkscape:window-y="32"
   inkscape:window-maximized="1"
   inkscape:current-layer="g21160" />


<g
   id="g19726"
   transform="matrix(0.57007688,0,0,0.57007688,332.82976,568.08935)"
   style="stroke-width:1.75415">
	
	
	
	<g
   id="g19696"
   transform="matrix(0.55075184,0,0,0.55075184,94.389131,96.447538)"
   style="stroke-width:3.18501">
		<g
   id="g19694"
   style="stroke-width:3.18501">
			
			
				
		</g>
	</g>
	
	
	
<g
   id="g21149"
   transform="matrix(0.28067815,0,0,0.28067815,-707.81781,-1092.7126)"
   style="stroke-width:6.24968"><g
     id="Illustration"
     style="stroke-width:6.24968">
	<g
   id="Business_analysis"
   style="stroke-width:6.24968">
		<path
   style="fill:#f4f7fa;stroke-width:6.24968"
   d="m 1132.111,517.777 c -96.455,140.604 16.641,368.558 -126.481,474.304 -139.318,102.936 -310.466,-65.79 -441.764,22.817 -194.774,131.443 -159.204,732.9 125.565,1106.598 85.64,112.384 157.197,156.111 188.89,283.211 68.053,272.917 -171.119,435.265 -125.604,570.246 102.48,303.927 1678.563,558.957 2310.958,-354.443 295.354,-426.596 339.546,-1042.603 75.656,-1510.464 C 2662.486,264.629 1348.538,202.287 1132.111,517.777 Z"
   id="path20430" />
		<g
   id="g20502"
   style="stroke-width:6.24968">
			<g
   id="g20498"
   style="stroke-width:6.24968">
				<g
   id="g20450"
   style="stroke-width:6.24968">
					<linearGradient
   id="SVGID_1_-2"
   gradientUnits="userSpaceOnUse"
   x1="1101.1132"
   y1="1258.7692"
   x2="1875.7708"
   y2="2707.9604">
						<stop
   offset="0"
   style="stop-color:#FF9085"
   id="stop20432" />
						<stop
   offset="1"
   style="stop-color:#FB6FBB"
   id="stop20434" />
					</linearGradient>
					<path
   style="fill:url(#SVGID_1_-2);stroke-width:6.24968"
   d="m 2111.576,509.588 -1411.39,-47.77 c -32.268,-1.092 -58.48,23.908 -58.48,55.843 v 2563.822 c 0,31.935 26.211,56.331 58.48,54.496 l 1411.39,-80.258 c 29.191,-1.66 52.81,-27.555 52.81,-57.844 V 566.218 c 0,-30.289 -23.618,-55.642 -52.81,-56.63 z"
   id="path20437" />
					<g
   style="opacity:0.3;stroke-width:6.24968"
   id="g20441">
						<path
   style="fill:#d8dee8;stroke-width:6.24968"
   d="m 1532.482,2402.776 c -24.003,-293.152 156.076,-414.153 87.404,-679.752 -84.883,-328.303 -411.353,-342.374 -522.535,-664.315 -42.6,-123.351 -59.43,-309.834 62.515,-581.333 L 700.187,461.818 c -32.268,-1.092 -58.48,23.908 -58.48,55.843 v 2563.822 c 0,31.935 26.211,56.331 58.48,54.496 l 1258.483,-71.563 c -320.187,-247.918 -411.435,-481.454 -426.188,-661.64 z"
   id="path20439" />
					</g>
					
						<linearGradient
   id="SVGID_00000161617741218481100750000008933524247686185355_"
   gradientUnits="userSpaceOnUse"
   x1="2101.2708"
   y1="619.52502"
   x2="1059.5018"
   y2="2324.2354">
						<stop
   offset="0"
   style="stop-color:#FFFFFF"
   id="stop20443" />
						<stop
   offset="0.9964"
   style="stop-color:#EBEFF2"
   id="stop20445" />
					</linearGradient>
					<path
   style="opacity:0.3;fill:url(#SVGID_00000161617741218481100750000008933524247686185355_);stroke-width:6.24968"
   d="M 2111.576,541.961 700.186,495.819 c -13.227,-0.433 -23.997,9.859 -23.997,22.942 V 3079.59 c 0,13.083 10.77,23.126 23.997,22.39 l 1411.39,-78.63 c 11.981,-0.668 21.72,-11.328 21.72,-23.765 V 565.226 c 0,-12.437 -9.738,-22.874 -21.72,-23.265 z"
   id="path20448" />
				</g>
				<g
   id="g20473"
   style="stroke-width:6.24968">
					
						<linearGradient
   id="SVGID_00000039856828343328335810000003440609393294244493_"
   gradientUnits="userSpaceOnUse"
   x1="951.98621"
   y1="2532.5608"
   x2="1879.4401"
   y2="2532.5608">
						<stop
   offset="0"
   style="stop-color:#FFFFFF"
   id="stop20452" />
						<stop
   offset="0.9964"
   style="stop-color:#EBEFF2"
   id="stop20454" />
					</linearGradient>
					<path
   style="opacity:0.6;fill:url(#SVGID_00000039856828343328335810000003440609393294244493_);stroke-width:6.24968"
   d="m 1845.016,2480.602 -856.403,30.858 c -20.217,0.729 -36.627,17.694 -36.627,37.893 v 0 c 0,20.198 16.41,35.941 36.627,35.162 l 856.403,-33.001 c 19.022,-0.733 34.424,-17.182 34.424,-36.739 v 0 c 0,-19.559 -15.402,-34.859 -34.424,-34.173 z"
   id="path20457" />
					
						<linearGradient
   id="SVGID_00000021092801841359335460000016177309871099364745_"
   gradientUnits="userSpaceOnUse"
   x1="951.98621"
   y1="2660.78"
   x2="1879.4401"
   y2="2660.78">
						<stop
   offset="0"
   style="stop-color:#FFFFFF"
   id="stop20459" />
						<stop
   offset="0.9964"
   style="stop-color:#EBEFF2"
   id="stop20461" />
					</linearGradient>
					<path
   style="opacity:0.6;fill:url(#SVGID_00000021092801841359335460000016177309871099364745_);stroke-width:6.24968"
   d="m 1845.016,2606.912 -856.403,34.676 c -20.217,0.819 -36.627,17.857 -36.627,38.056 v 0 c 0,20.198 16.41,35.867 36.627,34.998 l 856.403,-36.819 c 19.022,-0.818 34.424,-17.335 34.424,-36.892 v 0 c 0,-19.559 -15.402,-34.789 -34.424,-34.019 z"
   id="path20464" />
					
						<linearGradient
   id="SVGID_00000055669353042421859970000010009767911109033641_"
   gradientUnits="userSpaceOnUse"
   x1="951.98621"
   y1="2788.9995"
   x2="1879.4401"
   y2="2788.9995">
						<stop
   offset="0"
   style="stop-color:#FFFFFF"
   id="stop20466" />
						<stop
   offset="0.9964"
   style="stop-color:#EBEFF2"
   id="stop20468" />
					</linearGradient>
					<path
   style="opacity:0.6;fill:url(#SVGID_00000055669353042421859970000010009767911109033641_);stroke-width:6.24968"
   d="m 1845.016,2733.222 -856.403,38.493 c -20.217,0.908 -36.627,18.02 -36.627,38.219 v 0 c 0,20.198 16.41,35.794 36.627,34.835 l 856.403,-40.637 c 19.022,-0.903 34.424,-17.489 34.424,-37.046 v 0 c 0,-19.557 -15.402,-34.719 -34.424,-33.864 z"
   id="path20471" />
				</g>
				<g
   id="g20496"
   style="stroke-width:6.24968">
					
						<linearGradient
   id="SVGID_00000003077461558147959360000008078699995528389029_"
   gradientUnits="userSpaceOnUse"
   x1="951.98621"
   y1="656.20673"
   x2="1418.5055"
   y2="656.20673">
						<stop
   offset="0"
   style="stop-color:#FFFFFF"
   id="stop20475" />
						<stop
   offset="0.9964"
   style="stop-color:#EBEFF2"
   id="stop20477" />
					</linearGradient>
					<path
   style="opacity:0.6;fill:url(#SVGID_00000003077461558147959360000008078699995528389029_);stroke-width:6.24968"
   d="M 1400.918,644.484 970.126,632.283 c -10.016,-0.284 -18.14,7.591 -18.14,17.588 v 0 c 0,9.997 8.124,18.322 18.14,18.593 l 430.792,11.668 c 9.716,0.263 17.587,-7.499 17.587,-17.336 v 0 c 0,-9.839 -7.871,-18.036 -17.587,-18.312 z"
   id="path20480" />
					
						<linearGradient
   id="SVGID_00000107588354179845536660000015386762543124882828_"
   gradientUnits="userSpaceOnUse"
   x1="951.98621"
   y1="720.17908"
   x2="1418.5055"
   y2="720.17908">
						<stop
   offset="0"
   style="stop-color:#FFFFFF"
   id="stop20482" />
						<stop
   offset="0.9964"
   style="stop-color:#EBEFF2"
   id="stop20484" />
					</linearGradient>
					<path
   style="opacity:0.6;fill:url(#SVGID_00000107588354179845536660000015386762543124882828_);stroke-width:6.24968"
   d="M 1400.918,707.981 970.126,696.73 c -10.016,-0.262 -18.14,7.63 -18.14,17.628 v 0 c 0,9.997 8.124,18.304 18.14,18.553 l 430.792,10.717 c 9.716,0.242 17.587,-7.538 17.587,-17.375 v 0 c 0,-9.837 -7.871,-18.018 -17.587,-18.272 z"
   id="path20487" />
					
						<linearGradient
   id="SVGID_00000029046595533340555530000011121280985535663015_"
   gradientUnits="userSpaceOnUse"
   x1="951.98621"
   y1="784.15131"
   x2="1418.5055"
   y2="784.15131">
						<stop
   offset="0"
   style="stop-color:#FFFFFF"
   id="stop20489" />
						<stop
   offset="0.9964"
   style="stop-color:#EBEFF2"
   id="stop20491" />
					</linearGradient>
					<path
   style="opacity:0.6;fill:url(#SVGID_00000029046595533340555530000011121280985535663015_);stroke-width:6.24968"
   d="M 1400.918,771.478 970.126,761.177 c -10.016,-0.24 -18.14,7.671 -18.14,17.668 v 0 c 0,9.997 8.124,18.286 18.14,18.513 l 430.792,9.767 c 9.716,0.22 17.587,-7.577 17.587,-17.414 v 0 c 0,-9.837 -7.871,-18.001 -17.587,-18.233 z"
   id="path20494" />
				</g>
			</g>
			<path
   style="opacity:0.35;fill:#ffffff;stroke-width:6.24968"
   d="m 1535.729,2402.669 c -23.998,-293.119 156.04,-414.106 87.385,-679.675 -84.864,-328.266 -411.259,-342.335 -522.416,-664.239 -40.832,-118.249 -57.986,-294.534 48.181,-548.268 L 703.625,495.93 c -13.224,-0.432 -23.991,9.858 -23.991,22.94 V 3079.4 c 0,13.081 10.767,23.124 23.991,22.387 l 1219.977,-67.966 C 1634.31,2797.148 1549.869,2575.376 1535.729,2402.669 Z"
   id="path20500" />
		</g>
		<g
   id="g20513"
   style="stroke-width:6.24968">
			
				<linearGradient
   id="SVGID_00000023976170730476354600000010536265423792255902_"
   gradientUnits="userSpaceOnUse"
   x1="2120.6919"
   y1="1995.0928"
   x2="3884.5161"
   y2="1995.0928"
   gradientTransform="matrix(0.9964,-0.0843,0.0843,0.9964,-697.5371,339.2811)">
				<stop
   offset="0"
   style="stop-color:#AA80F9"
   id="stop20504" />
				<stop
   offset="0.9964"
   style="stop-color:#6165D7"
   id="stop20506" />
			</linearGradient>
			<path
   style="fill:url(#SVGID_00000023976170730476354600000010536265423792255902_);stroke-width:6.24968"
   d="m 1810.829,3076.997 c -90.779,-1.536 -173.299,-211.895 -180.461,-383.843 -2.771,-66.516 -5.528,-132.686 32.899,-199.29 64.854,-112.407 164.428,-82.912 222.598,-174.479 85.896,-135.215 -71.436,-293.653 13.99,-405.989 62.838,-82.633 167.872,-23.078 244.069,-113.876 88.39,-105.329 2.126,-251.106 83.969,-304.231 47.541,-30.858 89.165,10.204 225.996,-20.918 53.529,-12.176 80.293,-18.264 102.744,-37.008 78.717,-65.722 18.484,-177.601 76.724,-260.853 64.109,-91.643 233.311,-93.618 338.594,-64.726 188.641,51.767 298.601,237.349 325.599,394.292 5.784,33.62 39.962,253.122 -99.481,393.683 -101.397,102.212 -255.667,123.437 -280.686,126.88 -97.478,13.412 -121.314,-11.803 -152.679,13.941 -90.661,74.413 87.104,302.641 -15.789,481.628 -42.01,73.077 -124.485,126.957 -202.586,142.708 -126.27,25.467 -195.229,-57.978 -257.933,-16.004 -81.121,54.303 -1.688,218.054 -89.71,283.518 -62.278,46.317 -125.577,-18.154 -235.242,29.727 -97.355,42.504 -98.861,115.749 -152.615,114.84 z"
   id="path20509" />
			<path
   style="opacity:0.5;fill:#f4f7fa;stroke-width:6.24968"
   d="m 1791.178,2916.767 c 41.885,3.767 46.446,-109.122 161.922,-274.243 126.102,-180.316 209.939,-173.352 328.083,-336.297 134.874,-186.021 52.294,-231.901 166.898,-377.51 155.325,-197.349 323.111,-133.52 510.739,-365.463 56.282,-69.575 130.847,-164.494 101.228,-262.252 -25.682,-84.765 -126.33,-160.558 -224.861,-145.53 -4.124,0.629 -86.785,14.568 -129.818,86.404 -52.79,88.122 15.533,160.736 -35.456,229.261 -26.706,35.892 -75.269,47.073 -172.393,69.437 -139.686,32.164 -167.838,5.919 -202.503,37.701 -78.329,71.818 35.938,232.846 -41.583,318.914 -66.554,73.892 -190.335,-0.881 -247.853,68.965 -69.419,84.297 81.341,229.083 16.91,361.959 -55.474,114.405 -198.762,72.092 -278.332,194.959 -93.964,145.091 -13.423,388.261 47.019,393.695 z"
   id="path20511" />
		</g>
		<g
   id="g20524"
   style="stroke-width:6.24968">
			
				<linearGradient
   id="SVGID_00000011752045153603829770000006838675932622060953_"
   gradientUnits="userSpaceOnUse"
   x1="2231.2485"
   y1="2368.9329"
   x2="3351.1086"
   y2="2368.9329">
				<stop
   offset="0.0036"
   style="stop-color:#E38DDD"
   id="stop20515" />
				<stop
   offset="1"
   style="stop-color:#9571F6"
   id="stop20517" />
			</linearGradient>
			<path
   style="fill:url(#SVGID_00000011752045153603829770000006838675932622060953_);stroke-width:6.24968"
   d="m 2401.053,2896.732 c 64.791,-1.573 62.378,-120.661 171.438,-166.666 120.637,-50.889 210.525,58.152 292.946,5.487 92.61,-59.177 21.776,-224.104 125.055,-298.244 70.559,-50.654 128.584,8.406 218.718,-40.465 93.949,-50.939 176.848,-194.234 126.856,-322.393 -41.708,-106.92 -161.328,-165.925 -252.376,-158.016 -74.483,6.47 -91.298,54.372 -157.672,46.977 -82.693,-9.214 -88.09,-87.076 -176.366,-114.05 -87.835,-26.839 -200.594,14.16 -257.704,89.215 -47.489,62.411 -46.123,134.732 -44.93,197.811 3.201,169.344 86.052,226.891 51.15,295.366 -43.548,85.441 -190.1,30.306 -246.427,116.258 -70.495,107.573 56.123,350.984 149.312,348.72 z"
   id="path20520" />
			<path
   style="opacity:0.5;fill:#f4f7fa;stroke-width:6.24968"
   d="m 2358.164,2775.97 c 23.993,2.473 23.717,-74.803 91.719,-145.76 77.965,-81.353 145.393,-49.755 234.899,-116.626 110.908,-82.861 57.681,-168.959 155.578,-251.649 137.234,-115.915 330.202,-21.375 371.647,-109.355 24.215,-51.404 -16.49,-137.107 -71.179,-161.172 -58.361,-25.683 -92.121,36.663 -188.612,31.744 -90.375,-4.608 -100.768,-61.339 -213.488,-79.708 -54.952,-8.955 -127.136,-20.717 -168.895,18.024 -81.822,75.91 -11.219,312.674 10.333,384.947 19.827,66.489 34.773,91.629 19.734,120.883 -39.391,76.623 -199.654,16.473 -263.193,101.198 -53.144,70.861 -9.538,204.28 21.457,207.474 z"
   id="path20522" />
		</g>
		<g
   id="g20632"
   style="stroke-width:6.24968">
			<g
   id="g20600"
   style="stroke-width:6.24968">
				<g
   id="g20562"
   style="stroke-width:6.24968">
					<g
   id="g20544"
   style="stroke-width:6.24968">
						
							<linearGradient
   id="SVGID_00000136375282668722770980000005482465044461357456_"
   gradientUnits="userSpaceOnUse"
   x1="2233.8667"
   y1="591.96582"
   x2="1522.4474"
   y2="1962.1084">
							<stop
   offset="0.0036"
   style="stop-color:#E38DDD"
   id="stop20526" />
							<stop
   offset="1"
   style="stop-color:#9571F6"
   id="stop20528" />
						</linearGradient>
						<path
   style="fill:url(#SVGID_00000136375282668722770980000005482465044461357456_);stroke-width:6.24968"
   d="M 2368.062,454.631 896.512,404.824 c -33.644,-1.139 -60.972,24.927 -60.972,58.223 V 3136.15 c 0,33.297 27.329,58.732 60.972,56.819 l 1471.549,-83.678 c 30.436,-1.731 55.062,-28.73 55.062,-60.31 V 513.674 c 0,-31.58 -24.626,-58.013 -55.061,-59.043 z"
   id="path20531" />
						<g
   style="opacity:0.3;stroke-width:6.24968"
   id="g20535">
							<path
   style="fill:#d8dee8;stroke-width:6.24968"
   d="m 1764.284,2428.515 c -25.026,-305.648 162.728,-431.806 91.13,-708.726 -88.501,-342.296 -428.887,-356.967 -544.808,-692.631 -44.416,-128.609 -61.963,-323.04 65.179,-606.112 L 896.512,404.825 c -33.644,-1.139 -60.972,24.927 -60.972,58.223 v 2673.103 c 0,33.297 27.329,58.732 60.972,56.819 l 1312.125,-74.613 c -333.834,-258.486 -428.971,-501.976 -444.353,-689.842 z"
   id="path20533" />
						</g>
						
							<linearGradient
   id="SVGID_00000039815629200172692730000004152172525724530316_"
   gradientUnits="userSpaceOnUse"
   x1="2357.3169"
   y1="569.25372"
   x2="1271.1433"
   y2="2346.6262">
							<stop
   offset="0"
   style="stop-color:#FFFFFF"
   id="stop20537" />
							<stop
   offset="0.9964"
   style="stop-color:#EBEFF2"
   id="stop20539" />
						</linearGradient>
						<path
   style="fill:url(#SVGID_00000039815629200172692730000004152172525724530316_);stroke-width:6.24968"
   d="M 2368.062,488.383 896.512,440.274 c -13.791,-0.451 -25.019,10.279 -25.019,23.92 v 2669.983 c 0,13.641 11.229,24.112 25.019,23.344 l 1471.549,-81.981 c 12.492,-0.696 22.646,-11.811 22.646,-24.778 V 512.64 c 0,-12.967 -10.153,-23.848 -22.645,-24.257 z"
   id="path20542" />
					</g>
					<g
   id="g20552"
   style="stroke-width:6.24968">
						<path
   style="fill:#d8dee8;stroke-width:6.24968"
   d="m 2090.14,2509.657 -892.907,32.174 c -21.078,0.76 -38.188,18.448 -38.188,39.508 v 0 c 0,21.059 17.11,37.472 38.188,36.66 l 892.907,-34.408 c 19.833,-0.764 35.891,-17.914 35.891,-38.305 v 0 c 0,-20.392 -16.058,-36.343 -35.891,-35.629 z"
   id="path20546" />
						<path
   style="fill:#d8dee8;stroke-width:6.24968"
   d="m 2090.14,2641.351 -892.907,36.154 c -21.078,0.854 -38.188,18.618 -38.188,39.678 v 0 c 0,21.059 17.11,37.396 38.188,36.49 l 892.907,-38.389 c 19.833,-0.853 35.891,-18.074 35.891,-38.465 v 0 c 0,-20.391 -16.058,-36.27 -35.891,-35.468 z"
   id="path20548" />
						<path
   style="fill:#d8dee8;stroke-width:6.24968"
   d="m 2090.14,2773.045 -892.907,40.134 c -21.078,0.947 -38.188,18.788 -38.188,39.848 v 0 c 0,21.059 17.11,37.32 38.188,36.32 l 892.907,-42.369 c 19.833,-0.941 35.891,-18.234 35.891,-38.625 v 0 c 0,-20.391 -16.058,-36.199 -35.891,-35.308 z"
   id="path20550" />
					</g>
					<g
   id="g20560"
   style="stroke-width:6.24968">
						<path
   style="fill:#d8dee8;stroke-width:6.24968"
   d="m 1627.113,595.277 -449.155,-12.721 c -10.443,-0.296 -18.913,7.914 -18.913,18.338 v 0 c 0,10.423 8.471,19.103 18.913,19.386 l 449.155,12.165 c 10.13,0.274 18.337,-7.818 18.337,-18.075 v 0 c -10e-4,-10.259 -8.208,-18.806 -18.337,-19.093 z"
   id="path20554" />
						<path
   style="fill:#d8dee8;stroke-width:6.24968"
   d="m 1627.113,661.48 -449.155,-11.731 c -10.443,-0.273 -18.913,7.956 -18.913,18.38 v 0 c 0,10.423 8.471,19.084 18.913,19.344 l 449.155,11.174 c 10.13,0.252 18.337,-7.859 18.337,-18.116 v 0 c -10e-4,-10.257 -8.208,-18.786 -18.337,-19.051 z"
   id="path20556" />
						<path
   style="fill:#d8dee8;stroke-width:6.24968"
   d="m 1627.113,727.684 -449.155,-10.74 c -10.443,-0.25 -18.913,7.997 -18.913,18.421 v 0 c 0,10.423 8.471,19.065 18.913,19.302 l 449.155,10.183 c 10.13,0.23 18.337,-7.899 18.337,-18.156 v 0 c -10e-4,-10.257 -8.208,-18.768 -18.337,-19.01 z"
   id="path20558" />
					</g>
				</g>
				<g
   id="g20596"
   style="stroke-width:6.24968">
					<g
   id="g20585"
   style="stroke-width:6.24968">
						
							<linearGradient
   id="SVGID_00000064347907142324723590000013943256724598887576_"
   gradientUnits="userSpaceOnUse"
   x1="1381.2589"
   y1="1021.6183"
   x2="1478.4187"
   y2="1899.9376">
							<stop
   offset="0"
   style="stop-color:#FFC444"
   id="stop20564" />
							<stop
   offset="0.9964"
   style="stop-color:#F36F56"
   id="stop20566" />
						</linearGradient>
						<path
   style="fill:url(#SVGID_00000064347907142324723590000013943256724598887576_);stroke-width:6.24968"
   d="m 1454.048,1438.774 c 29.16,-55.165 83.737,-94.355 147.687,-101.661 l 4.466,-272.606 c -182.271,4.764 -339.278,117.147 -409.618,278.235 z"
   id="path20569" />
						
							<linearGradient
   id="SVGID_00000160895329562584556060000014851352540767034757_"
   gradientUnits="userSpaceOnUse"
   x1="1720.8519"
   y1="1721.1504"
   x2="2109.813"
   y2="2506.7751">
							<stop
   offset="0.0036"
   style="stop-color:#E38DDD"
   id="stop20571" />
							<stop
   offset="1"
   style="stop-color:#9571F6"
   id="stop20573" />
						</linearGradient>
						<path
   style="fill:url(#SVGID_00000160895329562584556060000014851352540767034757_);stroke-width:6.24968"
   d="m 1811.547,1562.744 c -15.563,90.572 -93.308,160.082 -187.413,160.955 -27.82,0.258 -54.299,-5.512 -78.239,-16.108 l -142.849,234.82 c 66.035,35.068 141.391,54.231 221.088,52.77 236.975,-4.343 428.93,-189.783 450.565,-422.491 z"
   id="path20576" />
						
							<linearGradient
   id="SVGID_00000117666329684167509340000007117029239444335016_"
   gradientUnits="userSpaceOnUse"
   x1="1153.248"
   y1="1405.3336"
   x2="1674.1539"
   y2="2075.0693">
							<stop
   offset="0"
   style="stop-color:#AA80F9"
   id="stop20578" />
							<stop
   offset="0.9964"
   style="stop-color:#6165D7"
   id="stop20580" />
						</linearGradient>
						<path
   style="fill:url(#SVGID_00000117666329684167509340000007117029239444335016_);stroke-width:6.24968"
   d="m 1358.927,1915.674 143.258,-235.023 c -43.161,-35.422 -70.759,-89.534 -70.759,-150.324 0,-14.688 1.624,-28.996 4.68,-42.76 l -257.772,-95.671 c -13.576,43.984 -20.895,90.74 -20.895,139.204 0,160.48 80,301.255 201.488,384.574 z"
   id="path20583" />
					</g>
					<g
   id="g20594"
   style="stroke-width:6.24968">
						
							<linearGradient
   id="SVGID_00000091701521806733358600000017128775116623767455_"
   gradientUnits="userSpaceOnUse"
   x1="2233.813"
   y1="817.55261"
   x2="1817.5776"
   y2="1397.991">
							<stop
   offset="0"
   style="stop-color:#FF9085"
   id="stop20587" />
							<stop
   offset="1"
   style="stop-color:#FB6FBB"
   id="stop20589" />
						</linearGradient>
						<path
   style="fill:url(#SVGID_00000091701521806733358600000017128775116623767455_);stroke-width:6.24968"
   d="m 1652.78,1338.135 c 85.993,13.397 152.824,84.781 160.804,173.258 l 435.517,17.211 c 0,-0.195 0,-0.389 0,-0.583 0,-337.54 -257.716,-618.007 -588.917,-642.919 z"
   id="path20592" />
					</g>
				</g>
				<path
   style="opacity:0.35;fill:#ffffff;stroke-width:6.24968"
   d="m 1767.67,2428.403 c -25.021,-305.613 162.691,-431.756 91.109,-708.645 C 1770.297,1377.5 1429.99,1362.831 1314.095,1027.206 1271.522,903.917 1253.637,720.117 1364.33,455.569 L 900.097,440.392 c -13.788,-0.451 -25.014,10.278 -25.014,23.918 v 2669.671 c 0,13.639 11.226,24.11 25.014,23.342 L 2172.074,3086.46 C 1870.452,2839.697 1782.412,2608.471 1767.67,2428.403 Z"
   id="path20598" />
			</g>
			<g
   id="g20615"
   style="stroke-width:6.24968">
				
					<linearGradient
   id="SVGID_00000033352187064276895270000006328170519280370062_"
   gradientUnits="userSpaceOnUse"
   x1="974.06317"
   y1="796.31787"
   x2="573.55951"
   y2="2108.4932">
					<stop
   offset="0"
   style="stop-color:#FFC444"
   id="stop20602" />
					<stop
   offset="0.9964"
   style="stop-color:#F36F56"
   id="stop20604" />
				</linearGradient>
				<path
   style="fill:url(#SVGID_00000033352187064276895270000006328170519280370062_);stroke-width:6.24968"
   d="m 1275.537,1178.425 -712.181,-7.088 c -16.105,-0.16 -29.177,-12.99 -29.177,-28.655 V 871.804 c 0,-15.665 13.072,-28.053 29.177,-27.669 l 619.994,14.768 c 15.249,0.363 27.596,12.993 27.596,28.209 v 232.813 z"
   id="path20607" />
				<polygon
   style="opacity:0.67;fill:#ffffff;stroke-width:6.24968"
   points="639.273,947.6 639.273,915.126 1110.908,924.973 1110.908,956.795 "
   id="polygon20609" />
				<polygon
   style="opacity:0.67;fill:#ffffff;stroke-width:6.24968"
   points="639.273,1012.547 639.273,980.074 1110.908,988.618 1110.908,1020.441 "
   id="polygon20611" />
				<polygon
   style="opacity:0.67;fill:#ffffff;stroke-width:6.24968"
   points="639.273,1077.495 639.273,1045.021 1110.908,1052.263 1110.908,1084.086 "
   id="polygon20613" />
			</g>
			<g
   id="g20630"
   style="stroke-width:6.24968">
				
					<linearGradient
   id="SVGID_00000050664893065840097100000008537559652250601913_"
   gradientUnits="userSpaceOnUse"
   x1="-7327.231"
   y1="-3312.7676"
   x2="-8108.1987"
   y2="-2223.7109"
   gradientTransform="rotate(180,-2951,-143.5)">
					<stop
   offset="0"
   style="stop-color:#FF9085"
   id="stop20617" />
					<stop
   offset="1"
   style="stop-color:#FB6FBB"
   id="stop20619" />
				</linearGradient>
				<path
   style="opacity:0.3;fill:url(#SVGID_00000050664893065840097100000008537559652250601913_);stroke-width:6.24968"
   d="m 1651.58,1962.904 856.363,-18.406 c 22.292,-0.479 40.345,17.825 40.345,40.883 v 398.717 c 0,23.058 -18.053,42.359 -40.345,43.111 l -902.596,30.423 c -23.349,0.787 -42.297,-17.733 -42.297,-41.366 v -521.194 z"
   id="path20622" />
				<polygon
   style="opacity:0.67;fill:#ffffff;stroke-width:6.24968"
   points="2402.104,2279.918 2402.104,2328.108 1715.477,2349.473 1715.477,2300.447 "
   id="polygon20624" />
				<polygon
   style="opacity:0.67;fill:#ffffff;stroke-width:6.24968"
   points="2402.104,2183.536 2402.104,2231.727 1715.477,2251.422 1715.477,2202.396 "
   id="polygon20626" />
				<polygon
   style="opacity:0.67;fill:#ffffff;stroke-width:6.24968"
   points="2402.104,2087.154 2402.104,2135.345 1715.477,2153.37 1715.477,2104.344 "
   id="polygon20628" />
			</g>
		</g>
		<g
   id="g20788"
   style="stroke-width:6.24968">
			
				<linearGradient
   id="SVGID_00000029035527817278866460000003298806153236755599_"
   gradientUnits="userSpaceOnUse"
   x1="3174.949"
   y1="2970.7295"
   x2="3198.2109"
   y2="3266.7883"
   gradientTransform="matrix(1,-0.0024,0.0024,1,-794.8005,3.3687)">
				<stop
   offset="0"
   style="stop-color:#311944"
   id="stop20634" />
				<stop
   offset="1"
   style="stop-color:#A03976"
   id="stop20636" />
			</linearGradient>
			<path
   style="fill:url(#SVGID_00000029035527817278866460000003298806153236755599_);stroke-width:6.24968"
   d="m 2433,3114.021 c 0,0 -93.535,42.782 -95.048,49.579 -1.514,6.797 60.212,-2.422 85.422,-1.503 25.209,0.92 45.927,-6.581 43.622,-17.252 -2.31,-10.671 -11.197,-37.505 -11.197,-37.505 z"
   id="path20639" />
			
				<linearGradient
   id="SVGID_00000151521316921665207780000003463589101459381667_"
   gradientUnits="userSpaceOnUse"
   x1="3235.001"
   y1="3135.5554"
   x2="3230.772"
   y2="2828.9319"
   gradientTransform="matrix(1,-0.0024,0.0024,1,-794.8005,3.3687)">
				<stop
   offset="0"
   style="stop-color:#FFC444"
   id="stop20641" />
				<stop
   offset="0.9964"
   style="stop-color:#F36F56"
   id="stop20643" />
			</linearGradient>
			<path
   style="fill:url(#SVGID_00000151521316921665207780000003463589101459381667_);stroke-width:6.24968"
   d="m 2429.49,3079.491 5.797,42.145 c 0,0 14.836,5.241 24.78,-1.022 l 4.137,-46.249 z"
   id="path20646" />
			
				<linearGradient
   id="SVGID_00000021097695478255981960000018422689481833481344_"
   gradientUnits="userSpaceOnUse"
   x1="3614.5378"
   y1="2936.1958"
   x2="3637.7988"
   y2="3232.2446"
   gradientTransform="matrix(1,-0.0024,0.0024,1,-794.8005,3.3687)">
				<stop
   offset="0"
   style="stop-color:#311944"
   id="stop20648" />
				<stop
   offset="1"
   style="stop-color:#A03976"
   id="stop20650" />
			</linearGradient>
			<path
   style="fill:url(#SVGID_00000021097695478255981960000018422689481833481344_);stroke-width:6.24968"
   d="m 2870.464,3079.444 10.933,17.458 c 3.058,4.883 3.98,10.767 2.533,16.344 -3.774,14.549 -11.313,42.903 -14.613,50.299 -4.492,10.075 -65.074,16.199 -65.074,16.199 0,0 -5.421,-7.59 7.138,-16.805 12.558,-9.215 20.642,-10.678 25.05,-24.243 4.406,-13.562 7.277,-51.906 7.277,-51.906 z"
   id="path20653" />
			
				<linearGradient
   id="SVGID_00000174594963117309664640000001974266750810152635_"
   gradientUnits="userSpaceOnUse"
   x1="3637.8643"
   y1="3129.9988"
   x2="3633.635"
   y2="2823.3657"
   gradientTransform="matrix(1,-0.0024,0.0024,1,-794.8005,3.3687)">
				<stop
   offset="0"
   style="stop-color:#FFC444"
   id="stop20655" />
				<stop
   offset="0.9964"
   style="stop-color:#F36F56"
   id="stop20657" />
			</linearGradient>
			<path
   style="fill:url(#SVGID_00000174594963117309664640000001974266750810152635_);stroke-width:6.24968"
   d="m 2825.023,3035.119 c 3.987,3.163 23.59,62.187 23.59,62.187 0,0 6.32,8.041 18.258,-3.876 11.938,-11.917 5.404,-5.346 5.404,-5.346 l -2.385,-58.094 z"
   id="path20660" />
			
				<linearGradient
   id="SVGID_00000093858872901157980740000000427560926283779206_"
   gradientUnits="userSpaceOnUse"
   x1="3161.822"
   y1="2638.8298"
   x2="3388.5327"
   y2="2638.8298"
   gradientTransform="matrix(1,-0.0024,0.0024,1,-794.8005,3.3687)">
				<stop
   offset="0"
   style="stop-color:#444B8C"
   id="stop20662" />
				<stop
   offset="0.9964"
   style="stop-color:#3E4177"
   id="stop20664" />
			</linearGradient>
			<path
   style="fill:url(#SVGID_00000093858872901157980740000000427560926283779206_);stroke-width:6.24968"
   d="m 2375.936,2232.617 c -4.638,125.77 -4.511,262.403 3.076,408.349 8.541,164.347 25.279,316.224 46.242,453.886 7.671,0.226 15.731,0.247 24.15,-0.01 5.685,-0.171 11.193,-0.462 16.517,-0.842 10.638,-28.581 23.204,-66.163 34.43,-111.043 11.801,-47.193 18.888,-89.515 23.912,-129.983 17.689,-142.483 -3.472,-154.859 10.908,-260.456 12.735,-93.522 31.157,-97.217 52.475,-230.004 23.129,-144.079 5.602,-165.644 -2.917,-173.429 -36.257,-33.141 -121.184,-10.315 -208.793,43.531 z"
   id="path20667" />
			
				<linearGradient
   id="SVGID_00000071552387050163831710000004529202437436983170_"
   gradientUnits="userSpaceOnUse"
   x1="3161.8213"
   y1="2638.8396"
   x2="3388.5312"
   y2="2638.8396"
   gradientTransform="matrix(1,-0.0024,0.0024,1,-794.8005,3.3687)">
				<stop
   offset="0"
   style="stop-color:#444B8C"
   id="stop20669" />
				<stop
   offset="0.9964"
   style="stop-color:#3E4177"
   id="stop20671" />
			</linearGradient>
			<path
   style="opacity:0.3;fill:url(#SVGID_00000071552387050163831710000004529202437436983170_);stroke-width:6.24968"
   d="m 2584.73,2189.088 c -34.582,-31.612 -113.45,-12.234 -196.681,36.338 96.133,103.365 106.748,170.542 95.357,214.175 -12.872,49.313 -52.335,63.602 -52.055,117.49 0.344,66.222 60.154,83.621 59.051,153.7 -0.729,46.34 -26.993,45.921 -33.057,103.169 -7.176,67.736 27.191,90.988 16.198,141.117 -4.729,21.566 -18.307,49.764 -57.102,78.871 2.852,20.568 5.774,40.928 8.817,60.905 7.668,0.224 15.729,0.247 24.147,-0.011 5.685,-0.17 11.196,-0.46 16.515,-0.841 10.64,-28.581 23.206,-66.161 34.432,-111.042 11.801,-47.193 18.888,-89.515 23.912,-129.983 17.689,-142.483 -3.472,-154.859 10.908,-260.456 12.735,-93.522 31.157,-97.219 52.474,-230.005 23.128,-144.081 5.602,-165.645 -2.916,-173.427 z"
   id="path20674" />
			
				<linearGradient
   id="SVGID_00000095327868538919570090000006809925512222984580_"
   gradientUnits="userSpaceOnUse"
   x1="3224.7612"
   y1="2616.4817"
   x2="3681.156"
   y2="2616.4817"
   gradientTransform="matrix(1,-0.0024,0.0024,1,-794.8005,3.3687)">
				<stop
   offset="0"
   style="stop-color:#444B8C"
   id="stop20676" />
				<stop
   offset="0.9964"
   style="stop-color:#3E4177"
   id="stop20678" />
			</linearGradient>
			<path
   style="fill:url(#SVGID_00000095327868538919570090000006809925512222984580_);stroke-width:6.24968"
   d="m 2435.324,2230.362 c 82.85,120.604 172.261,270.735 252.331,450.499 60.509,135.849 104.464,263.429 136.784,377.148 4.341,1.996 14.58,5.977 27.647,4.218 17.823,-2.401 28.481,-13.807 31.267,-16.99 12.847,-81.607 11.243,-150.692 6.697,-200.544 -2.912,-31.917 -8.055,-85.07 -28.562,-150.654 -22.969,-73.462 -38.649,-77.556 -68.572,-155.264 -31.057,-80.657 -23.63,-100.821 -53.428,-201.781 -12.242,-41.475 -32.716,-103.188 -66.432,-176.987 -79.245,23.45 -158.489,46.903 -237.732,70.355 z"
   id="path20681" />
			<path
   style="fill:#ffffff;stroke-width:6.24968"
   d="m 2098.769,2060.193 c 0.785,29.346 49.017,55.195 87.854,63.123 90.804,18.533 196.08,-47.446 246.048,-120.432 9.812,-14.331 20.713,-31.707 23.342,-30.363 5.941,3.042 -48.648,92.734 -72.316,194.744 -12.109,52.186 -8.939,76.627 -31.577,111.371 -5.128,7.87 -11.447,16.065 -9.227,25.377 5.562,23.318 58.89,29.373 95.883,33.574 39.057,4.434 75.476,4.005 111.481,3.479 57.637,-0.841 62.177,-3.835 75.333,2.623 40.09,19.675 37.373,66.816 67.542,73.102 25.335,5.281 51.034,-23.011 59.183,-31.981 42.355,-46.625 40.092,-102.839 47.604,-159.538 17.464,-131.82 89.081,-276.242 159.137,-367.667 21.248,-27.727 36.022,-42.313 36.945,-68.082 2.709,-75.645 -117.131,-159.15 -216.908,-168.745 -27.348,-2.629 -76.321,-1.801 -122.23,2.528 -18.349,1.728 -37.884,4.273 -58.881,7.947 -50.921,8.909 -86.37,15.108 -122.496,31.637 -145.678,66.654 -113.886,215.025 -271.559,317.61 -54.219,35.272 -105.98,48.962 -105.158,79.693 z"
   id="path20683" />
			
				<linearGradient
   id="SVGID_00000088814254896289471820000014198774031440051851_"
   gradientUnits="userSpaceOnUse"
   x1="2711.6338"
   y1="1569.2543"
   x2="2663.2012"
   y2="1996.4969">
				<stop
   offset="0"
   style="stop-color:#FFC444"
   id="stop20685" />
				<stop
   offset="0.9964"
   style="stop-color:#F36F56"
   id="stop20687" />
			</linearGradient>
			<path
   style="fill:url(#SVGID_00000088814254896289471820000014198774031440051851_);stroke-width:6.24968"
   d="m 2695.655,1542.306 c 0,0 6.257,34.917 20.658,59.773 13.017,22.464 66.833,30.516 78.044,34.427 11.212,3.909 -16.915,23.436 -46.827,30.515 -29.91,7.081 -117.403,11.71 -134.539,2.292 -17.136,-9.416 11.128,-12.296 31.71,-23.116 20.583,-10.821 27.467,-54.807 21.093,-73.505 -6.372,-18.703 29.861,-30.386 29.861,-30.386 z"
   id="path20690" />
			<g
   id="g20706"
   style="stroke-width:6.24968">
				
					<linearGradient
   id="SVGID_00000010994194307726220690000013033063304942509736_"
   gradientUnits="userSpaceOnUse"
   x1="4567.9912"
   y1="2361.8044"
   x2="4490.2046"
   y2="2164.24"
   gradientTransform="matrix(0.9989,0.0475,-0.0475,0.9989,-1725.9976,-907.3022)">
					<stop
   offset="0"
   style="stop-color:#444B8C"
   id="stop20692" />
					<stop
   offset="0.9964"
   style="stop-color:#3E4177"
   id="stop20694" />
				</linearGradient>
				<path
   style="fill:url(#SVGID_00000010994194307726220690000013033063304942509736_);stroke-width:6.24968"
   d="m 2638.789,1532.2 c -21.706,-15.512 -27.717,-57.463 -15.662,-66.88 3.446,-2.691 6.738,-1.455 55.723,18.194 24.325,9.76 36.291,14.955 40.231,25.698 2.406,6.558 2.017,15.417 -0.64,22.398 -1.369,3.592 -4.036,8.064 -9.965,16.599 -5.262,7.574 -4.908,7.317 -6.521,9.519 -3.875,5.287 -11.351,14.19 -25.048,24.51 -0.762,-3.861 -1.966,-8.652 -3.983,-13.877 -0.776,-2.01 -3.905,-9.869 -8.866,-16.489 -8.538,-11.394 -18.225,-14.636 -25.269,-19.672 z"
   id="path20697" />
				
					<linearGradient
   id="SVGID_00000127732375543041023870000005237352319919490208_"
   gradientUnits="userSpaceOnUse"
   x1="2668.0437"
   y1="1520.0802"
   x2="2706.0974"
   y2="1834.8896">
					<stop
   offset="0"
   style="stop-color:#FFC444"
   id="stop20699" />
					<stop
   offset="0.9964"
   style="stop-color:#F36F56"
   id="stop20701" />
				</linearGradient>
				<path
   style="fill:url(#SVGID_00000127732375543041023870000005237352319919490208_);stroke-width:6.24968"
   d="m 2694.417,1572.096 c 0,0 -14.202,21.156 -40.507,18.286 -23.552,-2.572 -24.694,-55.69 -9.116,-66.271 5.197,-3.531 15.345,-4.644 23.442,-1.99 4.782,1.568 6.332,3.654 14.195,6.063 7.252,2.224 9.361,1.5 11.494,3.463 2.668,2.452 4.446,8.255 -0.857,23.539 4.706,-4.367 10.193,-5.88 13.945,-3.904 0.598,0.315 2.173,1.49 3.011,3.202 3.037,6.194 -2.824,13.679 -15.607,17.612 z"
   id="path20704" />
			</g>
			
				<linearGradient
   id="SVGID_00000084489229143186782820000014891322937270214807_"
   gradientUnits="userSpaceOnUse"
   x1="2113.0371"
   y1="2016.116"
   x2="2480.2036"
   y2="2016.116">
				<stop
   offset="0"
   style="stop-color:#AA80F9"
   id="stop20708" />
				<stop
   offset="0.9964"
   style="stop-color:#6165D7"
   id="stop20710" />
			</linearGradient>
			<path
   style="opacity:0.3;fill:url(#SVGID_00000084489229143186782820000014891322937270214807_);stroke-width:6.24968"
   d="m 2226.143,2055.683 c 65.837,-14.828 92.071,-14.35 124.628,-40.582 54.206,-43.675 62.347,-110.149 93.847,-109.337 14.886,0.384 26.979,15.587 35.585,30.473 -7.93,12.419 -15.86,24.839 -23.79,37.258 -0.032,-0.472 -0.137,-0.838 -0.401,-0.974 -2.628,-1.345 -13.53,16.031 -23.342,30.363 -49.968,72.986 -155.244,138.965 -246.048,120.432 -26.036,-5.315 -56.231,-18.704 -73.585,-35.781 44.816,-15.139 83.093,-25.092 113.106,-31.852 z"
   id="path20713" />
			
				<linearGradient
   id="SVGID_00000072274623887086581300000010590803771081350048_"
   gradientUnits="userSpaceOnUse"
   x1="6070.3213"
   y1="826.55231"
   x2="6152.9009"
   y2="826.55231"
   gradientTransform="matrix(0.8553,0.5182,-0.5182,0.8553,-2728.719,-1761.0112)">
				<stop
   offset="0"
   style="stop-color:#FFC444"
   id="stop20715" />
				<stop
   offset="0.9964"
   style="stop-color:#F36F56"
   id="stop20717" />
			</linearGradient>
			<path
   style="fill:url(#SVGID_00000072274623887086581300000010590803771081350048_);stroke-width:6.24968"
   d="m 2118.916,2112.291 c 0,0 -37.15,-3.695 -59.286,-13.166 -22.136,-9.473 -36.437,4.128 -34.403,13.544 2.033,9.413 38.453,22.52 53.003,22.99 14.549,0.472 40.686,-23.368 40.686,-23.368 z"
   id="path20720" />
			<path
   style="fill:#ffffff;stroke-width:6.24968"
   d="m 2919.017,2308.793 c 39.886,3.559 129.669,5.182 193.17,-53.566 105.716,-97.797 53.272,-283.955 16.473,-364.015 -42.189,-91.793 -109.339,-143.173 -150.146,-174.397 -50.628,-38.739 -81.53,-62.383 -118.707,-57.089 -96.15,13.693 -162.739,210.754 -109.956,267.173 17.28,18.47 34.391,8.011 84.399,23.937 16.285,5.187 137.833,43.901 158.996,133.422 14.812,62.656 -22.899,136.023 -90.017,185.298 5.262,13.079 10.525,26.159 15.788,39.237 z"
   id="path20722" />
			
				<linearGradient
   id="SVGID_00000173144797362801101270000003951026298759137179_"
   gradientUnits="userSpaceOnUse"
   x1="2346.4922"
   y1="2132.574"
   x2="3099.7827"
   y2="2132.574">
				<stop
   offset="0"
   style="stop-color:#AA80F9"
   id="stop20724" />
				<stop
   offset="0.9964"
   style="stop-color:#6165D7"
   id="stop20726" />
			</linearGradient>
			<path
   style="opacity:0.3;fill:url(#SVGID_00000173144797362801101270000003951026298759137179_);stroke-width:6.24968"
   d="m 2471.944,2276.333 c 45.156,-28.537 51.836,-57.458 102.401,-77 65.689,-25.389 97.255,6.862 129.823,-19.176 38.758,-30.988 4.448,-84.973 33.452,-178.655 4.923,-15.901 42.313,-136.676 128.108,-152.064 40.006,-7.175 92.847,8.151 113.208,42.054 15.935,26.531 1.09,46.311 20.464,75.602 19.361,29.272 42.517,22.112 67.198,46.526 39.189,38.766 45.196,120.513 9.815,166.743 -16.503,21.563 -37.948,30.09 -78.299,46.135 -24.647,9.799 -47.56,15.895 -67.291,19.766 49.41,-47.423 75.052,-108.583 62.422,-162.004 -13.191,-55.803 -65.386,-91.859 -106.78,-112.364 -41.421,77.952 -75.275,168.28 -86.548,253.376 -7.512,56.699 -5.249,112.913 -47.604,159.538 -8.148,8.969 -33.848,37.262 -59.183,31.981 -30.168,-6.286 -27.452,-53.428 -67.542,-73.102 -13.156,-6.458 -17.696,-3.464 -75.333,-2.623 -36.005,0.526 -72.424,0.956 -111.481,-3.479 -32.898,-3.736 -78.632,-8.971 -92.282,-26.478 59.391,-1.616 99.028,-18.078 125.452,-34.776 z"
   id="path20729" />
			<g
   id="g20763"
   style="stroke-width:6.24968">
				
					<linearGradient
   id="SVGID_00000045611047060456686280000003945845094066077064_"
   gradientUnits="userSpaceOnUse"
   x1="1964.5438"
   y1="2187.897"
   x2="2899.6458"
   y2="2187.897">
					<stop
   offset="0"
   style="stop-color:#444B8C"
   id="stop20731" />
					<stop
   offset="0.9964"
   style="stop-color:#26264F"
   id="stop20733" />
				</linearGradient>
				<path
   style="fill:url(#SVGID_00000045611047060456686280000003945845094066077064_);stroke-width:6.24968"
   d="m 2892.83,2340.141 4.647,-13.668 c 7.408,-21.793 -4.772,-45.035 -27.19,-51.864 l -878.96,-267.748 -26.783,90.779 874.519,269.36 c 22.302,6.868 46.382,-5.135 53.767,-26.859 z"
   id="path20736" />
				
					<linearGradient
   id="SVGID_00000180328827901075550980000011210610079883006089_"
   gradientUnits="userSpaceOnUse"
   x1="1102.124"
   y1="1892.7272"
   x2="2066.9761"
   y2="1892.7272">
					<stop
   offset="0"
   style="stop-color:#444B8C"
   id="stop20738" />
					<stop
   offset="0.9964"
   style="stop-color:#26264F"
   id="stop20740" />
				</linearGradient>
				<path
   style="fill:url(#SVGID_00000180328827901075550980000011210610079883006089_);stroke-width:6.24968"
   d="m 1117.892,1760.918 c 67.203,-265.497 330.549,-425.498 590.987,-350.511 265.218,76.363 417.06,363.727 336.479,634.61 -78.689,264.523 -348.541,407.225 -600.35,325.612 -247.458,-80.203 -392.791,-350.253 -327.116,-609.711 z m 850.963,260.665 c 66.599,-226.698 -60.471,-466.806 -281.944,-531.235 -218.128,-63.457 -439.738,69.737 -496.922,292.655 -56.088,218.641 66.391,446.54 275.34,513.675 212.042,68.129 438.24,-52.864 503.526,-275.095 z"
   id="path20743" />
				<path
   style="opacity:0.3;fill:#d8dee8;stroke-width:6.24968"
   d="m 1991.327,2006.86 112.071,34.139 c 7.69,35.744 22.641,56.222 37.688,68.695 56.608,46.926 132.198,-4.253 237.655,50.771 52.919,27.612 42.864,45.183 92.466,64.449 82.005,31.851 119.543,-12.27 192.117,16.722 73.407,29.324 80.644,92.695 122.277,90.421 17.809,-0.972 40.737,-13.928 66.301,-63.05 l 18.384,5.6 c 22.418,6.829 34.598,30.069 27.19,51.865 l -4.647,13.667 c -7.386,21.723 -31.465,33.728 -53.766,26.858 l -874.519,-269.361 z"
   id="path20745" />
				<path
   style="opacity:0.56;fill:#ffffff;stroke-width:6.24968"
   d="m 1444.577,2333.011 c 219.332,70.584 453.504,-54.412 521.218,-284.381 69.124,-234.758 -62.464,-483.474 -291.902,-550.095 -225.851,-65.58 -455.107,72.484 -514.146,303.188 -57.867,226.129 68.805,461.769 284.83,531.288 z"
   id="path20747" />
				
					<linearGradient
   id="SVGID_00000056406734660674004530000008745865076072357777_"
   gradientUnits="userSpaceOnUse"
   x1="-6733.561"
   y1="3448.1213"
   x2="-7219.3804"
   y2="2904.1699"
   gradientTransform="matrix(-0.8705,0.4922,0.4922,0.8705,-6104.4209,2747.6741)">
					<stop
   offset="0"
   style="stop-color:#444B8C"
   id="stop20749" />
					<stop
   offset="0.9964"
   style="stop-color:#26264F"
   id="stop20751" />
				</linearGradient>
				<path
   style="fill:url(#SVGID_00000056406734660674004530000008745865076072357777_);stroke-width:6.24968"
   d="m 1100.867,1783.688 c 67.203,-265.497 330.548,-425.498 590.987,-350.512 265.219,76.364 417.06,363.727 336.479,634.61 -78.69,264.524 -348.542,407.226 -600.35,325.612 -247.457,-80.203 -392.79,-350.252 -327.116,-609.71 z m 850.964,260.664 c 66.598,-226.699 -60.471,-466.806 -281.945,-531.235 -218.128,-63.456 -439.737,69.737 -496.923,292.655 -56.088,218.641 66.391,446.54 275.341,513.675 212.043,68.129 438.241,-52.864 503.527,-275.095 z"
   id="path20754" />
				
					<linearGradient
   id="SVGID_00000153691206902198193960000004544854747933731487_"
   gradientUnits="userSpaceOnUse"
   x1="-7447.7192"
   y1="2653.9214"
   x2="-6788.8281"
   y2="3379.2551"
   gradientTransform="matrix(-0.8705,0.4922,0.4922,0.8705,-6104.4209,2747.6741)">
					<stop
   offset="0"
   style="stop-color:#444B8C"
   id="stop20756" />
					<stop
   offset="0.9964"
   style="stop-color:#26264F"
   id="stop20758" />
				</linearGradient>
				<path
   style="fill:url(#SVGID_00000153691206902198193960000004544854747933731487_);stroke-width:6.24968"
   d="m 1126.323,1791.485 c 63.692,-250.436 312.296,-400.905 557.745,-329.974 249.69,72.157 392.751,342.752 317.164,597.974 -73.913,249.569 -328.308,384.642 -566.077,307.815 -233.887,-75.572 -371.156,-330.76 -308.832,-575.815 z m 825.508,252.867 c 66.598,-226.699 -60.471,-466.806 -281.945,-531.235 -218.128,-63.456 -439.737,69.737 -496.923,292.655 -56.088,218.641 66.391,446.54 275.341,513.675 212.043,68.129 438.241,-52.864 503.527,-275.095 z"
   id="path20761" />
			</g>
			
				<linearGradient
   id="SVGID_00000049900304614752021110000005461097673478290591_"
   gradientUnits="userSpaceOnUse"
   x1="-5446.4976"
   y1="637.70569"
   x2="-5428.2188"
   y2="534.24109"
   gradientTransform="matrix(-0.8553,-0.5182,-0.5182,0.8553,-1479.6936,-1003.974)">
				<stop
   offset="0"
   style="stop-color:#FFC444"
   id="stop20765" />
				<stop
   offset="0.9964"
   style="stop-color:#F36F56"
   id="stop20767" />
			</linearGradient>
			<path
   style="fill:url(#SVGID_00000049900304614752021110000005461097673478290591_);stroke-width:6.24968"
   d="m 2915.63,2300.378 -8.883,-22.077 c 0,0 -14.501,0.884 -26.401,-7.649 -6.484,-4.65 -17.991,-6.035 -21.336,-5.106 -3.344,0.927 -15.974,0.375 -1.577,7.244 14.395,6.867 14.282,11.97 8.282,17.607 -6,5.636 -28.834,17.763 -37.052,18.346 -8.219,0.584 6.641,13.296 14.929,14.92 8.289,1.621 21.881,3.675 38.696,-6.226 6.133,-3.61 33.342,-17.059 33.342,-17.059 z"
   id="path20770" />
			<g
   id="g20786"
   style="stroke-width:6.24968">
				
					<linearGradient
   id="SVGID_00000026863891925040016450000002419099502120983695_"
   gradientUnits="userSpaceOnUse"
   x1="5484.3745"
   y1="1565.6266"
   x2="5496.9741"
   y2="1750.2109"
   gradientTransform="translate(-2798.4924)">
					<stop
   offset="0"
   style="stop-color:#444B8C"
   id="stop20772" />
					<stop
   offset="0.9964"
   style="stop-color:#26264F"
   id="stop20774" />
				</linearGradient>
				<path
   style="fill:url(#SVGID_00000026863891925040016450000002419099502120983695_);stroke-width:6.24968"
   d="m 2665.055,1674.61 c -0.719,15.117 6.257,28.532 17.692,33.981 7.289,3.472 14.445,2.781 18.179,2.098 6.924,-12.945 13.848,-25.892 20.771,-38.837 -7.433,0.719 -15.117,1.321 -23.039,1.777 -11.677,0.672 -22.893,0.973 -33.603,0.981 z"
   id="path20777" />
				
					<linearGradient
   id="SVGID_00000028293264786368575230000005318712217405087620_"
   gradientUnits="userSpaceOnUse"
   x1="5441.5713"
   y1="1957.8145"
   x2="5441.5713"
   y2="1497.637"
   gradientTransform="translate(-2798.4924)">
					<stop
   offset="0"
   style="stop-color:#444B8C"
   id="stop20779" />
					<stop
   offset="0.9964"
   style="stop-color:#26264F"
   id="stop20781" />
				</linearGradient>
				<path
   style="fill:url(#SVGID_00000028293264786368575230000005318712217405087620_);stroke-width:6.24968"
   d="m 2677.771,1705.604 c 0,0 -23.341,262.04 -105.147,303.992 2.098,8.39 0,76.562 0,76.562 0,0 76.259,-22.962 80.606,-21.444 4.347,1.517 92.357,-144.361 47.697,-354.025 z"
   id="path20784" />
			</g>
		</g>
		<g
   id="g20882"
   style="stroke-width:6.24968">
			<g
   id="g20806"
   style="stroke-width:6.24968">
				
					<linearGradient
   id="SVGID_00000062880119520398665150000010466654879708027802_"
   gradientUnits="userSpaceOnUse"
   x1="2570.5857"
   y1="601.49042"
   x2="2364.5291"
   y2="1491.8075">
					<stop
   offset="0"
   style="stop-color:#D8DEE8"
   id="stop20790" />
					<stop
   offset="1"
   style="stop-color:#FFFFFF"
   id="stop20792" />
				</linearGradient>
				<path
   style="fill:url(#SVGID_00000062880119520398665150000010466654879708027802_);stroke-width:6.24968"
   d="m 1983.039,679.402 v 503.917 c 0,16.73 13.55,30.292 30.229,30.292 h 964.611 c 14.52,0 26.268,-12.616 26.268,-28.181 v -468.8 z"
   id="path20795" />
				
					<linearGradient
   id="SVGID_00000031913837638178356080000011018450471386362033_"
   gradientUnits="userSpaceOnUse"
   x1="2571.5212"
   y1="557.94952"
   x2="2150.3423"
   y2="1246.4856">
					<stop
   offset="0"
   style="stop-color:#FF9085"
   id="stop20797" />
					<stop
   offset="1"
   style="stop-color:#FB6FBB"
   id="stop20799" />
				</linearGradient>
				<path
   style="fill:url(#SVGID_00000031913837638178356080000011018450471386362033_);stroke-width:6.24968"
   d="m 2977.879,656.046 -964.611,-39.38 c -16.68,-0.681 -30.229,12.328 -30.229,29.058 v 51.635 l 1021.108,35.977 v -48.037 c 0,-15.564 -11.748,-28.66 -26.268,-29.253 z"
   id="path20802" />
				<path
   style="fill:#ffffff;stroke-width:6.24968"
   d="m 2052.312,658.471 c 0,7.403 -5.975,13.182 -13.352,12.908 -7.385,-0.274 -13.377,-6.509 -13.377,-13.925 0,-7.416 5.992,-13.195 13.377,-12.907 7.376,0.288 13.352,6.522 13.352,13.924 z"
   id="path20804" />
			</g>
			
		</g>
	</g>
</g></g></g>
<g
   id="g21250"
   transform="matrix(0.48734643,0,0,0.48734643,219.79584,211.69615)"
   style="stroke-width:2.05193"><g
     id="BACKGROUND"
     style="stroke-width:2.05193">
</g><g
     id="OBJECTS"
     transform="matrix(0.35801048,0,0,0.35801048,149.04971,-300.83999)"
     style="stroke-width:5.73147">
	<g
   id="g21160"
   style="stroke-width:5.73147"
   transform="translate(-45.316356,-59.863219)">
		<path
   d="m 228.331,112.728 c -65.428,0 -118.657,53.229 -118.657,118.657 0,65.427 53.229,118.657 118.657,118.657 65.428,0 118.657,-53.229 118.657,-118.657 0,-65.429 -53.229,-118.657 -118.657,-118.657 z M 186.116,312.89 c 2.584,5.791 5.421,10.947 8.469,15.446 -11.885,-4.149 -22.779,-10.423 -32.227,-18.368 5.624,-4.732 11.678,-8.813 18.072,-12.193 1.689,5.324 3.578,10.392 5.686,15.115 z m 9.072,-21.473 c 10.536,-3.583 21.699,-5.454 33.144,-5.454 11.451,0 22.613,1.869 33.145,5.45 -8.128,26.546 -21.061,42.629 -33.145,42.629 -12.084,-10e-4 -25.017,-16.082 -33.144,-42.625 z M 180.43,164.994 c -6.394,-3.381 -12.448,-7.461 -18.072,-12.193 9.448,-7.945 20.342,-14.219 32.226,-18.368 -3.048,4.499 -5.885,9.655 -8.469,15.446 -2.107,4.723 -3.996,9.79 -5.685,15.115 z m 47.901,-36.267 c 12.084,0 25.017,16.083 33.145,42.629 -10.532,3.581 -21.694,5.45 -33.145,5.45 -11.445,0 -22.608,-1.871 -33.144,-5.454 8.128,-26.543 21.061,-42.625 33.144,-42.625 z m 42.216,21.151 c -2.584,-5.791 -5.421,-10.947 -8.469,-15.446 11.885,4.149 22.779,10.423 32.226,18.368 -5.624,4.734 -11.678,8.813 -18.071,12.195 -1.689,-5.325 -3.579,-10.393 -5.686,-15.117 z m -42.216,42.928 c 12.791,0 25.272,-2.013 37.085,-5.884 2.251,10.993 3.728,23.236 4.155,36.462 h -82.479 c 0.428,-13.227 1.904,-25.471 4.155,-36.464 11.816,3.874 24.299,5.886 37.084,5.886 z m 41.24,46.578 c -0.428,13.227 -1.904,25.47 -4.155,36.463 -11.812,-3.871 -24.294,-5.884 -37.085,-5.884 -12.785,0 -25.268,2.012 -37.084,5.886 -2.251,-10.993 -3.728,-23.237 -4.155,-36.464 h 82.479 z m 0.976,73.506 c 2.107,-4.723 3.997,-9.791 5.686,-15.116 6.393,3.381 12.447,7.461 18.071,12.195 -9.448,7.945 -20.342,14.219 -32.227,18.368 3.049,-4.5 5.886,-9.656 8.47,-15.447 z m 9.901,-30.927 c 2.912,-13.241 4.654,-27.643 5.115,-42.579 h 45.115 c -1.75,22.6 -10.852,43.171 -24.91,59.32 -7.767,-6.709 -16.273,-12.311 -25.32,-16.741 z m 5.115,-58.579 c -0.46,-14.935 -2.203,-29.337 -5.115,-42.578 9.046,-4.43 17.552,-10.032 25.32,-16.742 14.058,16.149 23.16,36.72 24.91,59.321 H 285.563 Z M 150.898,164.059 c 7.766,6.707 16.27,12.313 25.316,16.743 -2.913,13.242 -4.655,27.645 -5.116,42.582 h -45.115 c 1.752,-22.602 10.855,-43.175 24.915,-59.325 z m -24.914,75.325 h 45.115 c 0.46,14.937 2.203,29.34 5.116,42.583 -9.046,4.43 -17.55,10.035 -25.316,16.743 -14.061,-16.151 -23.164,-36.723 -24.915,-59.326 z"
   id="path21154"
   style="fill:#fd7fa2;fill-opacity:1;stroke-width:5.73147" />
		<path
   d="M 296.028,259.718 H 160.634 c -6.6,0 -12,-5.4 -12,-12 v -32.667 c 0,-6.6 5.4,-12 12,-12 h 135.394 c 6.6,0 12,5.4 12,12 v 32.667 c 0,6.6 -5.4,12 -12,12 z"
   id="path21156"
   style="fill:#fd7fa2;fill-opacity:1;stroke-width:5.73147" />
		
			<text
   transform="translate(160.1399,246.7686)"
   style="font-size:58.1254px;font-family:Comfortaa-Bold;letter-spacing:5;fill:#ffffff;stroke-width:5.73147"
   id="text21158">www</text>
	</g>
	<g
   id="g21166"
   style="stroke-width:5.73147">
		<path
   d="m 379.618,347.976 c -2.138,0 -4.147,-0.832 -5.657,-2.344 l -20.601,-20.602 -8.314,15.436 c -1.398,2.596 -4.092,4.208 -7.032,4.208 -3.455,0 -6.51,-2.198 -7.601,-5.471 l -24.316,-72.95 c -0.823,-2.47 -0.426,-5.093 1.09,-7.195 1.508,-2.092 3.931,-3.341 6.479,-3.341 0.861,0 1.719,0.141 2.55,0.417 l 72.949,24.316 c 3.078,1.025 5.163,3.671 5.441,6.902 0.278,3.232 -1.322,6.194 -4.179,7.732 l -15.436,8.312 20.603,20.604 c 1.511,1.51 2.344,3.519 2.344,5.656 0,2.138 -0.833,4.146 -2.345,5.657 l -10.318,10.319 c -1.511,1.512 -3.52,2.344 -5.657,2.344 z"
   id="path21162"
   style="stroke-width:5.73147" />
		<path
   style="fill:#ffffff;stroke-width:5.73147"
   d="m 313.666,259.718 c 0.418,0 0.85,0.067 1.285,0.212 l 72.95,24.316 c 3.326,1.109 3.718,5.655 0.632,7.317 l -15.437,8.312 c -2.359,1.27 -2.827,4.456 -0.932,6.35 l 20.602,20.602 c 1.562,1.562 1.562,4.095 0,5.657 l -5.16,5.16 -5.16,5.16 c -0.781,0.781 -1.805,1.172 -2.828,1.172 -1.023,0 -2.047,-0.39 -2.828,-1.172 l -20.602,-20.602 c -0.793,-0.793 -1.812,-1.172 -2.822,-1.172 -1.403,0 -2.79,0.732 -3.529,2.104 l -8.312,15.437 c -0.765,1.421 -2.14,2.104 -3.511,2.104 -1.607,0 -3.207,-0.941 -3.806,-2.736 l -24.317,-72.95 c -0.897,-2.692 1.183,-5.271 3.775,-5.271 m 0,-8 c -3.832,0 -7.467,1.87 -9.725,5.002 -2.277,3.159 -2.874,7.095 -1.639,10.8 l 24.317,72.95 c 1.636,4.908 6.215,8.206 11.395,8.206 4.414,0 8.459,-2.418 10.555,-6.311 l 5.763,-10.703 16.801,16.801 c 2.267,2.266 5.28,3.515 8.485,3.515 3.205,0 6.219,-1.248 8.485,-3.515 l 5.16,-5.16 5.16,-5.16 c 4.679,-4.679 4.679,-12.292 0,-16.97 l -16.801,-16.801 10.703,-5.763 c 4.219,-2.272 6.678,-6.824 6.266,-11.598 -0.412,-4.774 -3.615,-8.837 -8.161,-10.352 l -72.95,-24.317 c -1.239,-0.415 -2.522,-0.624 -3.814,-0.624 z"
   id="path21164" />
	</g>
</g></g></svg>
