<?xml version="1.0" encoding="UTF-8" standalone="no"?>
<svg
   version="1.1"
   x="0px"
   y="0px"
   viewBox="0 0 164.26953 135.125"
   enable-background="new 0 0 64 64"
   xml:space="preserve"
   id="svg320"
   sodipodi:docname="report-timeseries.svg"
   width="164.26953"
   height="135.125"
   inkscape:version="1.2.2 (b0a8486541, 2022-12-01)"
   xmlns:inkscape="http://www.inkscape.org/namespaces/inkscape"
   xmlns:sodipodi="http://sodipodi.sourceforge.net/DTD/sodipodi-0.dtd"
   xmlns="http://www.w3.org/2000/svg"
   xmlns:svg="http://www.w3.org/2000/svg"><defs
     id="defs324"><marker
       style="overflow:visible"
       id="marker1661"
       refX="0"
       refY="0"
       orient="auto"
       inkscape:stockid="Dot"
       markerWidth="5.6666665"
       markerHeight="5.6666665"
       viewBox="0 0 5.6666667 5.6666667"
       inkscape:isstock="true"
       inkscape:collect="always"
       preserveAspectRatio="xMidYMid"><path
         transform="scale(0.5)"
         style="fill:context-stroke;fill-rule:evenodd;stroke:context-stroke;stroke-width:1pt"
         d="M 5,0 C 5,2.76 2.76,5 0,5 -2.76,5 -5,2.76 -5,0 c 0,-2.76 2.3,-5 5,-5 2.76,0 5,2.24 5,5 z"
         id="path1659"
         sodipodi:nodetypes="sssss" /></marker><marker
       style="overflow:visible"
       id="marker1607"
       refX="0"
       refY="0"
       orient="auto"
       inkscape:stockid="Dot"
       markerWidth="5.6666665"
       markerHeight="5.6666665"
       viewBox="0 0 5.6666667 5.6666667"
       inkscape:isstock="true"
       inkscape:collect="always"
       preserveAspectRatio="xMidYMid"><path
         transform="scale(0.5)"
         style="fill:context-stroke;fill-rule:evenodd;stroke:context-stroke;stroke-width:1pt"
         d="M 5,0 C 5,2.76 2.76,5 0,5 -2.76,5 -5,2.76 -5,0 c 0,-2.76 2.3,-5 5,-5 2.76,0 5,2.24 5,5 z"
         id="path1605"
         sodipodi:nodetypes="sssss" /></marker><marker
       style="overflow:visible"
       id="Dot"
       refX="0"
       refY="0"
       orient="auto"
       inkscape:stockid="Dot"
       markerWidth="5.6666665"
       markerHeight="5.6666665"
       viewBox="0 0 5.6666667 5.6666667"
       inkscape:isstock="true"
       inkscape:collect="always"
       preserveAspectRatio="xMidYMid"><path
         transform="scale(0.5)"
         style="fill:context-stroke;fill-rule:evenodd;stroke:context-stroke;stroke-width:1pt"
         d="M 5,0 C 5,2.76 2.76,5 0,5 -2.76,5 -5,2.76 -5,0 c 0,-2.76 2.3,-5 5,-5 2.76,0 5,2.24 5,5 z"
         id="Dot1"
         sodipodi:nodetypes="sssss" /></marker></defs><sodipodi:namedview
     id="namedview322"
     pagecolor="#ffffff"
     bordercolor="#666666"
     borderopacity="1.0"
     inkscape:showpageshadow="2"
     inkscape:pageopacity="0.0"
     inkscape:pagecheckerboard="0"
     inkscape:deskcolor="#d1d1d1"
     showgrid="false"
     inkscape:zoom="4.466696"
     inkscape:cx="88.656133"
     inkscape:cy="63.91749"
     inkscape:window-width="1728"
     inkscape:window-height="1048"
     inkscape:window-x="0"
     inkscape:window-y="32"
     inkscape:window-maximized="1"
     inkscape:current-layer="svg320" /><g
     display="none"
     id="g4"
     transform="translate(-3.5750043,15.002)"><rect
       x="-650.07599"
       y="-102.113"
       display="inline"
       fill="#000000"
       width="824.57599"
       height="414.11301"
       id="rect2" /></g><g
     display="none"
     id="g78"
     transform="translate(-3.5750043,15.002)"><circle
       display="inline"
       fill="#000000"
       cx="32"
       cy="32"
       r="32"
       id="circle6" /><polyline
       display="inline"
       fill="#000000"
       points="50.7,51.17 50.7,11.057 16.722,11.057 16.722,56.361 45.509,56.361    45.509,56.361 50.7,51.17  "
       id="polyline8" /><polygon
       display="inline"
       fill="#000000"
       points="15,9.333 15,54.667 43.806,54.667 49,49.472 49,9.333 "
       id="polygon10" /><polygon
       display="inline"
       fill="#000000"
       points="21.015,36.754 20.126,37.719 22.468,39.997 26.56,35.024 25.572,34.167 22.364,38.066 "
       id="polygon12" /><polygon
       display="inline"
       fill="#000000"
       points="21.015,44.341 20.126,45.305 22.468,47.583 26.56,42.611 25.572,41.753 22.364,45.652 "
       id="polygon14" /><line
       display="inline"
       fill="#000000"
       stroke="#e0e0e0"
       stroke-miterlimit="10"
       x1="29.079"
       y1="35.834"
       x2="43.874001"
       y2="35.834"
       id="line16" /><line
       display="inline"
       fill="#000000"
       stroke="#e0e0e0"
       stroke-miterlimit="10"
       x1="29.079"
       y1="38.319"
       x2="43.874001"
       y2="38.319"
       id="line18" /><line
       display="inline"
       fill="#000000"
       stroke="#e0e0e0"
       stroke-miterlimit="10"
       x1="29.079"
       y1="43.419998"
       x2="43.874001"
       y2="43.419998"
       id="line20" /><line
       display="inline"
       fill="#000000"
       stroke="#e0e0e0"
       stroke-miterlimit="10"
       x1="29.079"
       y1="45.904999"
       x2="43.874001"
       y2="45.904999"
       id="line22" /><polygon
       display="inline"
       fill="#000000"
       points="49,49.472 43.806,54.667 43.806,49.472 "
       id="polygon24" /><g
       display="inline"
       id="g40"><path
         fill="#000000"
         d="m 26.008,15.941 c -3.579,0 -6.48,2.901 -6.48,6.48 0,3.579 2.901,6.48 6.48,6.48 3.579,0 6.48,-2.901 6.48,-6.48 h -6.48 z"
         id="path26" /><path
         fill="#000000"
         d="m 26.7,15.249 v 6.48 h 6.48 c 0,-3.579 -2.901,-6.48 -6.48,-6.48 z"
         id="path28" /><line
         fill="#000000"
         stroke="#db2b42"
         stroke-miterlimit="10"
         x1="35.973"
         y1="25.57"
         x2="35.973"
         y2="27.849001"
         id="line30" /><line
         fill="#000000"
         stroke="#8ad5dd"
         stroke-miterlimit="10"
         x1="37.972"
         y1="20.277"
         x2="37.972"
         y2="27.849001"
         id="line32" /><line
         fill="#000000"
         stroke="#db2b42"
         stroke-miterlimit="10"
         x1="39.972"
         y1="16.43"
         x2="39.972"
         y2="27.849001"
         id="line34" /><line
         fill="#000000"
         stroke="#8ad5dd"
         stroke-miterlimit="10"
         x1="41.972"
         y1="20.035999"
         x2="41.972"
         y2="27.849001"
         id="line36" /><line
         fill="#000000"
         stroke="#db2b42"
         stroke-miterlimit="10"
         x1="43.971001"
         y1="23.712999"
         x2="43.971001"
         y2="27.849001"
         id="line38" /></g><circle
       display="inline"
       fill="#000000"
       cx="32"
       cy="32"
       r="32"
       id="circle42" /><polyline
       display="inline"
       fill="#000000"
       points="50.7,51.17 50.7,11.057 16.722,11.057 16.722,56.361 45.509,56.361    45.509,56.361 50.7,51.17  "
       id="polyline44" /><polygon
       display="inline"
       fill="#000000"
       points="15,9.333 15,54.667 43.806,54.667 49,49.472 49,9.333 "
       id="polygon46" /><polygon
       display="inline"
       fill="#000000"
       points="21.015,36.754 20.126,37.719 22.468,39.997 26.56,35.024 25.572,34.167 22.364,38.066 "
       id="polygon48" /><polygon
       display="inline"
       fill="#000000"
       points="21.015,44.341 20.126,45.305 22.468,47.583 26.56,42.611 25.572,41.753 22.364,45.652 "
       id="polygon50" /><line
       display="inline"
       fill="#000000"
       stroke="#e0e0e0"
       stroke-miterlimit="10"
       x1="29.079"
       y1="35.834"
       x2="43.874001"
       y2="35.834"
       id="line52" /><line
       display="inline"
       fill="#000000"
       stroke="#e0e0e0"
       stroke-miterlimit="10"
       x1="29.079"
       y1="38.319"
       x2="43.874001"
       y2="38.319"
       id="line54" /><line
       display="inline"
       fill="#000000"
       stroke="#e0e0e0"
       stroke-miterlimit="10"
       x1="29.079"
       y1="43.419998"
       x2="43.874001"
       y2="43.419998"
       id="line56" /><line
       display="inline"
       fill="#000000"
       stroke="#e0e0e0"
       stroke-miterlimit="10"
       x1="29.079"
       y1="45.904999"
       x2="43.874001"
       y2="45.904999"
       id="line58" /><polygon
       display="inline"
       fill="#000000"
       points="49,49.472 43.806,54.667 43.806,49.472 "
       id="polygon60" /><g
       display="inline"
       id="g76"><path
         fill="#000000"
         d="m 26.008,15.941 c -3.579,0 -6.48,2.901 -6.48,6.48 0,3.579 2.901,6.48 6.48,6.48 3.579,0 6.48,-2.901 6.48,-6.48 h -6.48 z"
         id="path62" /><path
         fill="#000000"
         d="m 26.7,15.249 v 6.48 h 6.48 c 0,-3.579 -2.901,-6.48 -6.48,-6.48 z"
         id="path64" /><line
         fill="#000000"
         stroke="#db2b42"
         stroke-miterlimit="10"
         x1="35.973"
         y1="25.57"
         x2="35.973"
         y2="27.849001"
         id="line66" /><line
         fill="#000000"
         stroke="#8ad5dd"
         stroke-miterlimit="10"
         x1="37.972"
         y1="20.277"
         x2="37.972"
         y2="27.849001"
         id="line68" /><line
         fill="#000000"
         stroke="#db2b42"
         stroke-miterlimit="10"
         x1="39.972"
         y1="16.43"
         x2="39.972"
         y2="27.849001"
         id="line70" /><line
         fill="#000000"
         stroke="#8ad5dd"
         stroke-miterlimit="10"
         x1="41.972"
         y1="20.035999"
         x2="41.972"
         y2="27.849001"
         id="line72" /><line
         fill="#000000"
         stroke="#db2b42"
         stroke-miterlimit="10"
         x1="43.971001"
         y1="23.712999"
         x2="43.971001"
         y2="27.849001"
         id="line74" /></g></g><g
     display="none"
     id="g114"
     transform="translate(-3.5750043,15.002)"><circle
       display="inline"
       fill="#000000"
       cx="32"
       cy="32"
       r="32"
       id="circle80" /><polygon
       display="inline"
       points="15,9.333 15,54.667 43.806,54.667 49,49.472 49,9.333 "
       id="polygon82" /><polygon
       display="inline"
       fill="#000000"
       points="21.015,36.754 20.126,37.719 22.468,39.997 26.56,35.024 25.572,34.167 22.364,38.066 "
       id="polygon84" /><polygon
       display="inline"
       fill="#000000"
       points="21.015,44.341 20.126,45.305 22.468,47.583 26.56,42.611 25.572,41.753 22.364,45.652 "
       id="polygon86" /><line
       display="inline"
       fill="#000000"
       stroke="#999999"
       stroke-miterlimit="10"
       x1="29.079"
       y1="35.834"
       x2="43.874001"
       y2="35.834"
       id="line88" /><line
       display="inline"
       fill="#000000"
       stroke="#999999"
       stroke-miterlimit="10"
       x1="29.079"
       y1="38.319"
       x2="43.874001"
       y2="38.319"
       id="line90" /><line
       display="inline"
       fill="#000000"
       stroke="#999999"
       stroke-miterlimit="10"
       x1="29.079"
       y1="43.419998"
       x2="43.874001"
       y2="43.419998"
       id="line92" /><line
       display="inline"
       fill="#000000"
       stroke="#999999"
       stroke-miterlimit="10"
       x1="29.079"
       y1="45.904999"
       x2="43.874001"
       y2="45.904999"
       id="line94" /><polygon
       display="inline"
       fill="#000000"
       points="49,49.472 43.806,54.667 43.806,49.472 "
       id="polygon96" /><g
       display="inline"
       id="g112"><path
         fill="#000000"
         d="m 26.008,15.941 c -3.579,0 -6.48,2.901 -6.48,6.48 0,3.579 2.901,6.48 6.48,6.48 3.579,0 6.48,-2.901 6.48,-6.48 h -6.48 z"
         id="path98" /><path
         fill="#000000"
         d="m 26.7,15.249 v 6.48 h 6.48 c 0,-3.579 -2.901,-6.48 -6.48,-6.48 z"
         id="path100" /><line
         fill="#000000"
         stroke="#db2b42"
         stroke-miterlimit="10"
         x1="35.973"
         y1="25.57"
         x2="35.973"
         y2="27.849001"
         id="line102" /><line
         fill="none"
         stroke="#000000"
         stroke-miterlimit="10"
         x1="37.972"
         y1="20.277"
         x2="37.972"
         y2="27.849001"
         id="line104" /><line
         fill="#000000"
         stroke="#db2b42"
         stroke-miterlimit="10"
         x1="39.972"
         y1="16.43"
         x2="39.972"
         y2="27.849001"
         id="line106" /><line
         fill="none"
         stroke="#000000"
         stroke-miterlimit="10"
         x1="41.972"
         y1="20.035999"
         x2="41.972"
         y2="27.849001"
         id="line108" /><line
         fill="#000000"
         stroke="#db2b42"
         stroke-miterlimit="10"
         x1="43.971001"
         y1="23.712999"
         x2="43.971001"
         y2="27.849001"
         id="line110" /></g></g><g
     display="none"
     id="g182"
     transform="translate(-3.5750043,15.002)"><g
       display="inline"
       id="g180"><polygon
         fill="#000000"
         points="8,0 8,64 48.667,64 56,56.667 56,0 "
         id="polygon116" /><polygon
         fill="#000000"
         points="16.492,38.712 15.236,40.074 18.543,43.29 24.32,36.27 22.926,35.059 18.396,40.564 "
         id="polygon118" /><polygon
         fill="#000000"
         points="16.492,49.422 15.236,50.784 18.543,54 24.32,46.98 22.926,45.769 18.396,51.274 "
         id="polygon120" /><line
         fill="#000000"
         stroke="#e0e0e0"
         stroke-miterlimit="10"
         x1="27.875999"
         y1="37.412998"
         x2="48.764"
         y2="37.412998"
         id="line122" /><line
         fill="#000000"
         stroke="#e0e0e0"
         stroke-miterlimit="10"
         x1="27.875999"
         y1="40.921001"
         x2="48.764"
         y2="40.921001"
         id="line124" /><line
         fill="#000000"
         stroke="#e0e0e0"
         stroke-miterlimit="10"
         x1="27.875999"
         y1="48.123001"
         x2="48.764"
         y2="48.123001"
         id="line126" /><line
         fill="#000000"
         stroke="#e0e0e0"
         stroke-miterlimit="10"
         x1="27.875999"
         y1="51.631001"
         x2="48.764"
         y2="51.631001"
         id="line128" /><polygon
         fill="#000000"
         points="56,56.667 48.667,64 48.667,56.667 "
         id="polygon130" /><g
         id="g146"><path
           fill="#000000"
           d="m 23.541,9.328 c -5.052,0 -9.148,4.096 -9.148,9.148 0,5.052 4.096,9.148 9.148,9.148 5.052,0 9.148,-4.096 9.148,-9.148 h -9.148 z"
           id="path132" /><path
           fill="#000000"
           d="m 24.518,8.351 v 9.148 h 9.148 c 0,-5.052 -4.096,-9.148 -9.148,-9.148 z"
           id="path134" /><line
           fill="#000000"
           stroke="#db2b42"
           stroke-miterlimit="10"
           x1="37.609001"
           y1="22.922001"
           x2="37.609001"
           y2="26.139999"
           id="line136" /><line
           fill="#000000"
           stroke="#8ad5dd"
           stroke-miterlimit="10"
           x1="40.431999"
           y1="15.45"
           x2="40.431999"
           y2="26.139999"
           id="line138" /><line
           fill="#000000"
           stroke="#db2b42"
           stroke-miterlimit="10"
           x1="43.255001"
           y1="10.019"
           x2="43.255001"
           y2="26.139999"
           id="line140" /><line
           fill="#000000"
           stroke="#8ad5dd"
           stroke-miterlimit="10"
           x1="46.077999"
           y1="15.11"
           x2="46.077999"
           y2="26.139999"
           id="line142" /><line
           fill="#000000"
           stroke="#db2b42"
           stroke-miterlimit="10"
           x1="48.901001"
           y1="20.301001"
           x2="48.901001"
           y2="26.139999"
           id="line144" /></g><polygon
         fill="#000000"
         points="8,0 8,64 48.667,64 56,56.667 56,0 "
         id="polygon148" /><polygon
         fill="#000000"
         points="16.492,38.712 15.236,40.074 18.543,43.29 24.32,36.27 22.926,35.059 18.396,40.564 "
         id="polygon150" /><polygon
         fill="#000000"
         points="16.492,49.422 15.236,50.784 18.543,54 24.32,46.98 22.926,45.769 18.396,51.274 "
         id="polygon152" /><line
         fill="#000000"
         stroke="#e0e0e0"
         stroke-miterlimit="10"
         x1="27.875999"
         y1="37.412998"
         x2="48.764"
         y2="37.412998"
         id="line154" /><line
         fill="#000000"
         stroke="#e0e0e0"
         stroke-miterlimit="10"
         x1="27.875999"
         y1="40.921001"
         x2="48.764"
         y2="40.921001"
         id="line156" /><line
         fill="#000000"
         stroke="#e0e0e0"
         stroke-miterlimit="10"
         x1="27.875999"
         y1="48.123001"
         x2="48.764"
         y2="48.123001"
         id="line158" /><line
         fill="#000000"
         stroke="#e0e0e0"
         stroke-miterlimit="10"
         x1="27.875999"
         y1="51.631001"
         x2="48.764"
         y2="51.631001"
         id="line160" /><polygon
         fill="#000000"
         points="56,56.667 48.667,64 48.667,56.667 "
         id="polygon162" /><g
         id="g178"><path
           fill="#000000"
           d="m 23.541,9.328 c -5.052,0 -9.148,4.096 -9.148,9.148 0,5.052 4.096,9.148 9.148,9.148 5.052,0 9.148,-4.096 9.148,-9.148 h -9.148 z"
           id="path164" /><path
           fill="#000000"
           d="m 24.518,8.351 v 9.148 h 9.148 c 0,-5.052 -4.096,-9.148 -9.148,-9.148 z"
           id="path166" /><line
           fill="#000000"
           stroke="#db2b42"
           stroke-miterlimit="10"
           x1="37.609001"
           y1="22.922001"
           x2="37.609001"
           y2="26.139999"
           id="line168" /><line
           fill="#000000"
           stroke="#8ad5dd"
           stroke-miterlimit="10"
           x1="40.431999"
           y1="15.45"
           x2="40.431999"
           y2="26.139999"
           id="line170" /><line
           fill="#000000"
           stroke="#db2b42"
           stroke-miterlimit="10"
           x1="43.255001"
           y1="10.019"
           x2="43.255001"
           y2="26.139999"
           id="line172" /><line
           fill="#000000"
           stroke="#8ad5dd"
           stroke-miterlimit="10"
           x1="46.077999"
           y1="15.11"
           x2="46.077999"
           y2="26.139999"
           id="line174" /><line
           fill="#000000"
           stroke="#db2b42"
           stroke-miterlimit="10"
           x1="48.901001"
           y1="20.301001"
           x2="48.901001"
           y2="26.139999"
           id="line176" /></g></g></g><g
     display="none"
     id="g224"
     transform="translate(-3.5750043,15.002)"><g
       display="inline"
       id="g186"><path
         d="M 54.6,1.4 V 56.087 L 48.087,62.6 H 9.4 V 1.4 H 54.6 M 56,0 H 8 V 64 H 48.667 L 56,56.667 Z"
         id="path184" /></g><polyline
       display="inline"
       fill="none"
       stroke="#000000"
       stroke-width="1.4"
       stroke-miterlimit="10"
       points="48.179,63.512    48.179,56.179 55.512,56.179  "
       id="polyline188" /><polygon
       display="inline"
       points="16.492,38.712 15.236,40.074 18.543,43.29 24.32,36.27 22.926,35.059 18.396,40.564 "
       id="polygon190" /><polygon
       display="inline"
       points="16.492,49.422 15.236,50.784 18.543,54 24.32,46.98 22.926,45.769 18.396,51.274 "
       id="polygon192" /><line
       display="inline"
       fill="none"
       stroke="#000000"
       stroke-width="1.4"
       stroke-miterlimit="10"
       x1="27.875999"
       y1="37.412998"
       x2="48.764"
       y2="37.412998"
       id="line194" /><line
       display="inline"
       fill="none"
       stroke="#000000"
       stroke-width="1.4"
       stroke-miterlimit="10"
       x1="27.875999"
       y1="40.921001"
       x2="48.764"
       y2="40.921001"
       id="line196" /><line
       display="inline"
       fill="none"
       stroke="#000000"
       stroke-width="1.4"
       stroke-miterlimit="10"
       x1="27.875999"
       y1="48.123001"
       x2="48.764"
       y2="48.123001"
       id="line198" /><line
       display="inline"
       fill="none"
       stroke="#000000"
       stroke-width="1.4"
       stroke-miterlimit="10"
       x1="27.875999"
       y1="51.631001"
       x2="48.764"
       y2="51.631001"
       id="line200" /><g
       display="inline"
       id="g204"><path
         d="m 21.541,11.613 v 6.863 2 h 2 6.863 c -0.867,2.971 -3.616,5.148 -6.863,5.148 -3.941,0 -7.148,-3.206 -7.148,-7.148 0,-3.248 2.177,-5.996 5.148,-6.863 m 2,-2.285 c -5.052,0 -9.148,4.096 -9.148,9.148 0,5.052 4.096,9.148 9.148,9.148 5.052,0 9.148,-4.096 9.148,-9.148 h -9.148 z"
         id="path202" /></g><path
       display="inline"
       d="m 24.518,8.351 v 9.148 h 9.148 c 0,-5.052 -4.096,-9.148 -9.148,-9.148 z"
       id="path206" /><line
       display="inline"
       fill="none"
       stroke="#000000"
       stroke-width="1.4"
       stroke-miterlimit="10"
       x1="37.609001"
       y1="22.922001"
       x2="37.609001"
       y2="26.139999"
       id="line208" /><line
       display="inline"
       fill="none"
       stroke="#000000"
       stroke-width="1.4"
       stroke-miterlimit="10"
       x1="40.431999"
       y1="15.45"
       x2="40.431999"
       y2="26.139999"
       id="line210" /><line
       display="inline"
       fill="none"
       stroke="#000000"
       stroke-width="1.4"
       stroke-miterlimit="10"
       x1="43.255001"
       y1="10.019"
       x2="43.255001"
       y2="26.139999"
       id="line212" /><line
       display="inline"
       fill="none"
       stroke="#000000"
       stroke-width="1.4"
       stroke-miterlimit="10"
       x1="46.077999"
       y1="15.11"
       x2="46.077999"
       y2="26.139999"
       id="line214" /><line
       display="inline"
       fill="none"
       stroke="#000000"
       stroke-width="1.4"
       stroke-miterlimit="10"
       x1="48.901001"
       y1="20.301001"
       x2="48.901001"
       y2="26.139999"
       id="line216" /><polygon
       display="inline"
       points="16.492,38.712 15.236,40.074 18.543,43.29 24.32,36.27 22.926,35.059 18.396,40.564 "
       id="polygon218" /><polygon
       display="inline"
       points="16.492,49.422 15.236,50.784 18.543,54 24.32,46.98 22.926,45.769 18.396,51.274 "
       id="polygon220" /><path
       display="inline"
       d="m 24.518,8.351 v 9.148 h 9.148 c 0,-5.052 -4.096,-9.148 -9.148,-9.148 z"
       id="path222" /></g><g
     id="g254"
     transform="translate(-5.7604657,50.653001)"
     style="fill:#89b264;stroke:none;stroke-width:0.5;stroke-dasharray:none"><path
       d="M 56.311,56.681 V -0.25 H 7.689 v 64.5 h 41.053 z m -7.378,5.964 v -5.773 h 5.773 z M 8.689,0.75 H 55.31 V 55.872 H 47.932 V 63.25 H 8.689 Z"
       id="path226"
       style="fill:#89b264;stroke:none;stroke-width:0.5;stroke-dasharray:none" /><rect
       x="27.875999"
       y="36.912998"
       width="20.888"
       height="1"
       id="rect228"
       style="fill:#89b264;stroke:none;stroke-width:0.5;stroke-dasharray:none" /><rect
       x="27.875999"
       y="40.421001"
       width="20.888"
       height="1"
       id="rect230"
       style="fill:#89b264;stroke:none;stroke-width:0.5;stroke-dasharray:none" /><rect
       x="27.875999"
       y="47.623001"
       width="20.888"
       height="1"
       id="rect232"
       style="fill:#89b264;stroke:none;stroke-width:0.5;stroke-dasharray:none" /><rect
       x="27.875999"
       y="51.131001"
       width="20.888"
       height="1"
       id="rect234"
       style="fill:#89b264;stroke:none;stroke-width:0.5;stroke-dasharray:none" /><path
       d="m 23.541,27.623 c 5.052,0 9.148,-4.096 9.148,-9.148 H 23.541 V 9.328 c -5.052,0 -9.148,4.096 -9.148,9.148 0,5.052 4.096,9.147 9.148,9.147 z m -1,-17.234 v 8.087 1 h 1 8.087 c -0.494,4.023 -3.932,7.148 -8.087,7.148 -4.493,0 -8.148,-3.655 -8.148,-8.148 0,-4.155 3.125,-7.593 7.148,-8.087 z"
       id="path236"
       style="fill:#89b264;stroke:none;stroke-width:0.5;stroke-dasharray:none" /><rect
       x="37.108002"
       y="22.923"
       width="1"
       height="3.217"
       id="rect238"
       style="fill:#89b264;stroke:none;stroke-width:0.5;stroke-dasharray:none" /><rect
       x="39.931999"
       y="15.45"
       width="1"
       height="10.689"
       id="rect240"
       style="fill:#89b264;stroke:none;stroke-width:0.5;stroke-dasharray:none" /><rect
       x="42.755001"
       y="10.019"
       width="1"
       height="16.121"
       id="rect242"
       style="fill:#89b264;stroke:none;stroke-width:0.5;stroke-dasharray:none" /><rect
       x="45.577"
       y="15.109"
       width="1"
       height="11.03"
       id="rect244"
       style="fill:#89b264;stroke:none;stroke-width:0.5;stroke-dasharray:none" /><rect
       x="48.400002"
       y="20.301001"
       width="1"
       height="5.8390002"
       id="rect246"
       style="fill:#89b264;stroke:none;stroke-width:0.5;stroke-dasharray:none" /><path
       d="m 18.354,39.827 -1.882,-1.832 -1.934,2.098 4.045,3.935 6.431,-7.816 -2.148,-1.866 z m 5.27,-3.499 -5.122,6.225 -2.568,-2.497 0.578,-0.627 1.925,1.873 4.549,-5.529 z"
       id="path248"
       style="fill:#89b264;stroke:none;stroke-width:0.5;stroke-dasharray:none" /><path
       d="m 18.354,50.536 -1.882,-1.831 -1.934,2.098 4.045,3.935 6.431,-7.816 -2.148,-1.866 z m 5.27,-3.498 -5.122,6.225 -2.568,-2.497 0.578,-0.627 1.925,1.872 4.549,-5.528 z"
       id="path250"
       style="fill:#89b264;stroke:none;stroke-width:0.5;stroke-dasharray:none" /><path
       d="m 24.518,8.351 v 9.148 h 9.148 c 0,-5.052 -4.096,-9.148 -9.148,-9.148 z m 1,1.061 c 3.695,0.454 6.633,3.391 7.087,7.087 h -7.087 z"
       id="path252"
       style="fill:#89b264;stroke:none;stroke-width:0.5;stroke-dasharray:none" /></g><g
     display="none"
     id="g262"
     transform="translate(-3.5750043,15.002)"><g
       display="inline"
       id="g260"><path
         d="m 23.541,25.623 c 3.247,0 5.996,-2.177 6.863,-5.148 h -6.863 -2 v -2 -6.863 c -2.971,0.867 -5.148,3.616 -5.148,6.863 0,3.942 3.207,7.148 7.148,7.148 z"
         id="path256" /><path
         d="M 56,56.667 V 0 H 8 V 64 H 48.667 Z M 48.764,48.823 H 27.876 v -1.4 h 20.888 z m 0,-7.202 H 27.876 v -1.4 h 20.888 z m 0,-3.508 H 27.876 v -1.4 h 20.888 z m 0.116,23.694 v -4.928 h 4.928 z M 48.2,20.301 h 1.4 v 5.839 h -1.4 z m -2.823,-5.192 h 1.4 v 11.03 h -1.4 z m -2.822,-5.09 h 1.4 V 26.14 h -1.4 z m -2.824,5.431 h 1.4 v 10.69 h -1.4 z m -2.823,7.473 h 1.4 v 3.217 h -1.4 z M 25.37,7.499 c 5.052,0 9.148,4.096 9.148,9.148 H 25.37 Z m -1.829,1.829 v 9.148 h 9.148 c 0,5.052 -4.096,9.148 -9.148,9.148 -5.052,0 -9.148,-4.096 -9.148,-9.148 0,-5.052 4.096,-9.148 9.148,-9.148 z M 18.543,54 l -3.306,-3.215 1.255,-1.362 1.904,1.852 4.53,-5.505 1.394,1.211 z m 0,-10.71 -3.306,-3.215 1.255,-1.362 1.904,1.852 4.53,-5.505 1.394,1.211 z m 9.333,7.641 h 20.888 v 1.4 H 27.876 Z"
         id="path258" /></g></g><g
     display="none"
     id="g314"
     transform="translate(-3.5750043,15.002)"><circle
       display="inline"
       fill="#000000"
       cx="32"
       cy="32"
       r="32"
       id="circle264" /><polygon
       display="inline"
       fill="#000000"
       points="55.513,56.087 47.479,63.513 8.75,63.513 8.75,0.75 55.513,0.75 "
       id="polygon266" /><polygon
       display="inline"
       points="11.405,60.6 11.405,3.396 52.6,3.396 52.6,56.156 48.344,56.156 48.375,60.6 "
       id="polygon268" /><path
       display="inline"
       d="M 54.6,1.4 V 56.087 L 48.087,62.6 H 9.4 V 1.4 H 54.6 M 56,0 H 8 V 64 H 48.667 L 56,56.667 Z"
       id="path270" /><polygon
       display="inline"
       fill="#000000"
       points="16.492,38.712 15.236,40.074 18.543,43.29 24.32,36.27 22.926,35.059 18.396,40.564 "
       id="polygon272" /><polygon
       display="inline"
       fill="#000000"
       points="16.492,49.422 15.236,50.784 18.543,54 24.32,46.98 22.926,45.769 18.396,51.274 "
       id="polygon274" /><line
       display="inline"
       fill="#000000"
       stroke="#ffffff"
       stroke-width="1.4"
       stroke-miterlimit="10"
       x1="27.875999"
       y1="37.412998"
       x2="48.764"
       y2="37.412998"
       id="line276" /><line
       display="inline"
       fill="#000000"
       stroke="#ffffff"
       stroke-width="1.4"
       stroke-miterlimit="10"
       x1="27.875999"
       y1="40.921001"
       x2="48.764"
       y2="40.921001"
       id="line278" /><line
       display="inline"
       fill="#000000"
       stroke="#ffffff"
       stroke-width="1.4"
       stroke-miterlimit="10"
       x1="27.875999"
       y1="48.123001"
       x2="48.764"
       y2="48.123001"
       id="line280" /><line
       display="inline"
       fill="#000000"
       stroke="#ffffff"
       stroke-width="1.4"
       stroke-miterlimit="10"
       x1="27.875999"
       y1="51.631001"
       x2="48.764"
       y2="51.631001"
       id="line282" /><polygon
       display="inline"
       fill="#000000"
       points="16.492,38.712 15.236,40.074 18.543,43.29 24.32,36.27 22.926,35.059 18.396,40.564 "
       id="polygon284" /><polygon
       display="inline"
       fill="#000000"
       points="16.492,49.422 15.236,50.784 18.543,54 24.32,46.98 22.926,45.769 18.396,51.274 "
       id="polygon286" /><line
       display="inline"
       fill="#000000"
       stroke="#ffffff"
       stroke-width="1.4"
       stroke-miterlimit="10"
       x1="27.875999"
       y1="37.412998"
       x2="48.764"
       y2="37.412998"
       id="line288" /><line
       display="inline"
       fill="#000000"
       stroke="#ffffff"
       stroke-width="1.4"
       stroke-miterlimit="10"
       x1="27.875999"
       y1="40.921001"
       x2="48.764"
       y2="40.921001"
       id="line290" /><line
       display="inline"
       fill="#000000"
       stroke="#ffffff"
       stroke-width="1.4"
       stroke-miterlimit="10"
       x1="27.875999"
       y1="48.123001"
       x2="48.764"
       y2="48.123001"
       id="line292" /><line
       display="inline"
       fill="#000000"
       stroke="#ffffff"
       stroke-width="1.4"
       stroke-miterlimit="10"
       x1="27.875999"
       y1="51.631001"
       x2="48.764"
       y2="51.631001"
       id="line294" /><g
       display="inline"
       id="g298"><path
         fill="#000000"
         d="m 23.737,9.942 c -4.673,0 -8.461,3.788 -8.461,8.461 0,4.673 3.788,8.461 8.461,8.461 4.673,0 8.461,-3.788 8.461,-8.461 h -8.461 z"
         id="path296" /></g><g
       display="inline"
       id="g310"><line
         fill="#000000"
         stroke="#ffffff"
         stroke-width="1.4"
         stroke-miterlimit="10"
         x1="36.731998"
         y1="22.922001"
         x2="36.731998"
         y2="26.139999"
         id="line300" /><line
         fill="#000000"
         stroke="#f33052"
         stroke-width="1.4"
         stroke-miterlimit="10"
         x1="39.555"
         y1="15.45"
         x2="39.555"
         y2="26.139999"
         id="line302" /><line
         fill="#000000"
         stroke="#ffffff"
         stroke-width="1.4"
         stroke-miterlimit="10"
         x1="42.377998"
         y1="10.019"
         x2="42.377998"
         y2="26.139999"
         id="line304" /><line
         fill="#000000"
         stroke="#f33052"
         stroke-width="1.4"
         stroke-miterlimit="10"
         x1="45.201"
         y1="15.11"
         x2="45.201"
         y2="26.139999"
         id="line306" /><line
         fill="#000000"
         stroke="#ffffff"
         stroke-width="1.4"
         stroke-miterlimit="10"
         x1="48.023998"
         y1="20.301001"
         x2="48.023998"
         y2="26.139999"
         id="line308" /></g><path
       display="inline"
       fill="#000000"
       d="m 25.537,8.142 v 8.461 h 8.461 c 0,-4.673 -3.788,-8.461 -8.461,-8.461 z"
       id="path312" /></g><g
     id="g665"
     transform="translate(48.444539,3.1549996)"
     style="fill:#89b264;stroke:none;stroke-width:0.5;stroke-dasharray:none"><path
       d="M 56.311,56.681 V -0.25 H 7.689 v 64.5 h 41.053 z m -7.378,5.964 v -5.773 h 5.773 z M 8.689,0.75 H 55.31 V 55.872 H 47.932 V 63.25 H 8.689 Z"
       id="path637"
       style="fill:#89b264;stroke:none;stroke-width:0.5;stroke-dasharray:none" /><rect
       x="27.875999"
       y="36.912998"
       width="20.888"
       height="1"
       id="rect639"
       style="fill:#89b264;stroke:none;stroke-width:0.5;stroke-dasharray:none" /><rect
       x="27.875999"
       y="40.421001"
       width="20.888"
       height="1"
       id="rect641"
       style="fill:#89b264;stroke:none;stroke-width:0.5;stroke-dasharray:none" /><rect
       x="27.875999"
       y="47.623001"
       width="20.888"
       height="1"
       id="rect643"
       style="fill:#89b264;stroke:none;stroke-width:0.5;stroke-dasharray:none" /><rect
       x="27.875999"
       y="51.131001"
       width="20.888"
       height="1"
       id="rect645"
       style="fill:#89b264;stroke:none;stroke-width:0.5;stroke-dasharray:none" /><path
       d="m 23.541,27.623 c 5.052,0 9.148,-4.096 9.148,-9.148 H 23.541 V 9.328 c -5.052,0 -9.148,4.096 -9.148,9.148 0,5.052 4.096,9.147 9.148,9.147 z m -1,-17.234 v 8.087 1 h 1 8.087 c -0.494,4.023 -3.932,7.148 -8.087,7.148 -4.493,0 -8.148,-3.655 -8.148,-8.148 0,-4.155 3.125,-7.593 7.148,-8.087 z"
       id="path647"
       style="fill:#89b264;stroke:none;stroke-width:0.5;stroke-dasharray:none" /><rect
       x="37.108002"
       y="22.923"
       width="1"
       height="3.217"
       id="rect649"
       style="fill:#89b264;stroke:none;stroke-width:0.5;stroke-dasharray:none" /><rect
       x="39.931999"
       y="15.45"
       width="1"
       height="10.689"
       id="rect651"
       style="fill:#89b264;stroke:none;stroke-width:0.5;stroke-dasharray:none" /><rect
       x="42.755001"
       y="10.019"
       width="1"
       height="16.121"
       id="rect653"
       style="fill:#89b264;stroke:none;stroke-width:0.5;stroke-dasharray:none" /><rect
       x="45.577"
       y="15.109"
       width="1"
       height="11.03"
       id="rect655"
       style="fill:#89b264;stroke:none;stroke-width:0.5;stroke-dasharray:none" /><rect
       x="48.400002"
       y="20.301001"
       width="1"
       height="5.8390002"
       id="rect657"
       style="fill:#89b264;stroke:none;stroke-width:0.5;stroke-dasharray:none" /><path
       d="m 18.354,39.827 -1.882,-1.832 -1.934,2.098 4.045,3.935 6.431,-7.816 -2.148,-1.866 z m 5.27,-3.499 -5.122,6.225 -2.568,-2.497 0.578,-0.627 1.925,1.873 4.549,-5.529 z"
       id="path659"
       style="fill:#89b264;stroke:none;stroke-width:0.5;stroke-dasharray:none" /><path
       d="m 18.354,50.536 -1.882,-1.831 -1.934,2.098 4.045,3.935 6.431,-7.816 -2.148,-1.866 z m 5.27,-3.498 -5.122,6.225 -2.568,-2.497 0.578,-0.627 1.925,1.872 4.549,-5.528 z"
       id="path661"
       style="fill:#89b264;stroke:none;stroke-width:0.5;stroke-dasharray:none" /><path
       d="m 24.518,8.351 v 9.148 h 9.148 c 0,-5.052 -4.096,-9.148 -9.148,-9.148 z m 1,1.061 c 3.695,0.454 6.633,3.391 7.087,7.087 h -7.087 z"
       id="path663"
       style="fill:#89b264;stroke:none;stroke-width:0.5;stroke-dasharray:none" /></g><g
     id="g695"
     transform="translate(69.143021,70.875001)"
     style="stroke:none;stroke-width:0.5;stroke-dasharray:none;fill:#89b264"><path
       d="M 56.311,56.681 V -0.25 H 7.689 v 64.5 h 41.053 z m -7.378,5.964 v -5.773 h 5.773 z M 8.689,0.75 H 55.31 V 55.872 H 47.932 V 63.25 H 8.689 Z"
       id="path667"
       style="stroke:none;stroke-width:0.5;stroke-dasharray:none;fill:#89b264" /><rect
       x="27.875999"
       y="36.912998"
       width="20.888"
       height="1"
       id="rect669"
       style="stroke:none;stroke-width:0.5;stroke-dasharray:none;fill:#89b264" /><rect
       x="27.875999"
       y="40.421001"
       width="20.888"
       height="1"
       id="rect671"
       style="stroke:none;stroke-width:0.5;stroke-dasharray:none;fill:#89b264" /><rect
       x="27.875999"
       y="47.623001"
       width="20.888"
       height="1"
       id="rect673"
       style="stroke:none;stroke-width:0.5;stroke-dasharray:none;fill:#89b264" /><rect
       x="27.875999"
       y="51.131001"
       width="20.888"
       height="1"
       id="rect675"
       style="stroke:none;stroke-width:0.5;stroke-dasharray:none;fill:#89b264" /><path
       d="m 23.541,27.623 c 5.052,0 9.148,-4.096 9.148,-9.148 H 23.541 V 9.328 c -5.052,0 -9.148,4.096 -9.148,9.148 0,5.052 4.096,9.147 9.148,9.147 z m -1,-17.234 v 8.087 1 h 1 8.087 c -0.494,4.023 -3.932,7.148 -8.087,7.148 -4.493,0 -8.148,-3.655 -8.148,-8.148 0,-4.155 3.125,-7.593 7.148,-8.087 z"
       id="path677"
       style="stroke:none;stroke-width:0.5;stroke-dasharray:none;fill:#89b264" /><rect
       x="37.108002"
       y="22.923"
       width="1"
       height="3.217"
       id="rect679"
       style="stroke:none;stroke-width:0.5;stroke-dasharray:none;fill:#89b264" /><rect
       x="39.931999"
       y="15.45"
       width="1"
       height="10.689"
       id="rect681"
       style="stroke:none;stroke-width:0.5;stroke-dasharray:none;fill:#89b264" /><rect
       x="42.755001"
       y="10.019"
       width="1"
       height="16.121"
       id="rect683"
       style="stroke:none;stroke-width:0.5;stroke-dasharray:none;fill:#89b264" /><rect
       x="45.577"
       y="15.109"
       width="1"
       height="11.03"
       id="rect685"
       style="stroke:none;stroke-width:0.5;stroke-dasharray:none;fill:#89b264" /><rect
       x="48.400002"
       y="20.301001"
       width="1"
       height="5.8390002"
       id="rect687"
       style="stroke:none;stroke-width:0.5;stroke-dasharray:none;fill:#89b264" /><path
       d="m 18.354,39.827 -1.882,-1.832 -1.934,2.098 4.045,3.935 6.431,-7.816 -2.148,-1.866 z m 5.27,-3.499 -5.122,6.225 -2.568,-2.497 0.578,-0.627 1.925,1.873 4.549,-5.529 z"
       id="path689"
       style="stroke:none;stroke-width:0.5;stroke-dasharray:none;fill:#89b264" /><path
       d="m 18.354,50.536 -1.882,-1.831 -1.934,2.098 4.045,3.935 6.431,-7.816 -2.148,-1.866 z m 5.27,-3.498 -5.122,6.225 -2.568,-2.497 0.578,-0.627 1.925,1.872 4.549,-5.528 z"
       id="path691"
       style="stroke:none;stroke-width:0.5;stroke-dasharray:none;fill:#89b264" /><path
       d="m 24.518,8.351 v 9.148 h 9.148 c 0,-5.052 -4.096,-9.148 -9.148,-9.148 z m 1,1.061 c 3.695,0.454 6.633,3.391 7.087,7.087 h -7.087 z"
       id="path693"
       style="stroke:none;stroke-width:0.5;stroke-dasharray:none;fill:#89b264" /></g><g
     id="g1875"
     transform="translate(107.95854,0.25)"
     style="fill:#89b264;stroke:none"><path
       d="M 56.311,56.681 V -0.25 H 7.689 v 64.5 h 41.053 z m -7.378,5.964 v -5.773 h 5.773 z M 8.689,0.75 H 55.31 V 55.872 H 47.932 V 63.25 H 8.689 Z"
       id="path1847"
       style="stroke:none;stroke-width:0.5;stroke-dasharray:none;fill:#89b264" /><rect
       x="27.875999"
       y="36.912998"
       width="20.888"
       height="1"
       id="rect1849"
       style="stroke:none;stroke-width:0.5;stroke-dasharray:none;fill:#89b264" /><rect
       x="27.875999"
       y="40.421001"
       width="20.888"
       height="1"
       id="rect1851"
       style="stroke:none;stroke-width:0.5;stroke-dasharray:none;fill:#89b264" /><rect
       x="27.875999"
       y="47.623001"
       width="20.888"
       height="1"
       id="rect1853"
       style="stroke:none;stroke-width:0.5;stroke-dasharray:none;fill:#89b264" /><rect
       x="27.875999"
       y="51.131001"
       width="20.888"
       height="1"
       id="rect1855"
       style="stroke:none;stroke-width:0.5;stroke-dasharray:none;fill:#89b264" /><path
       d="m 23.541,27.623 c 5.052,0 9.148,-4.096 9.148,-9.148 H 23.541 V 9.328 c -5.052,0 -9.148,4.096 -9.148,9.148 0,5.052 4.096,9.147 9.148,9.147 z m -1,-17.234 v 8.087 1 h 1 8.087 c -0.494,4.023 -3.932,7.148 -8.087,7.148 -4.493,0 -8.148,-3.655 -8.148,-8.148 0,-4.155 3.125,-7.593 7.148,-8.087 z"
       id="path1857"
       style="stroke:none;stroke-width:0.5;stroke-dasharray:none;fill:#89b264" /><rect
       x="37.108002"
       y="22.923"
       width="1"
       height="3.217"
       id="rect1859"
       style="stroke:none;stroke-width:0.5;stroke-dasharray:none;fill:#89b264" /><rect
       x="39.931999"
       y="15.45"
       width="1"
       height="10.689"
       id="rect1861"
       style="stroke:none;stroke-width:0.5;stroke-dasharray:none;fill:#89b264" /><rect
       x="42.755001"
       y="10.019"
       width="1"
       height="16.121"
       id="rect1863"
       style="stroke:none;stroke-width:0.5;stroke-dasharray:none;fill:#89b264" /><rect
       x="45.577"
       y="15.109"
       width="1"
       height="11.03"
       id="rect1865"
       style="stroke:none;stroke-width:0.5;stroke-dasharray:none;fill:#89b264" /><rect
       x="48.400002"
       y="20.301001"
       width="1"
       height="5.8390002"
       id="rect1867"
       style="stroke:none;stroke-width:0.5;stroke-dasharray:none;fill:#89b264" /><path
       d="m 18.354,39.827 -1.882,-1.832 -1.934,2.098 4.045,3.935 6.431,-7.816 -2.148,-1.866 z m 5.27,-3.499 -5.122,6.225 -2.568,-2.497 0.578,-0.627 1.925,1.873 4.549,-5.529 z"
       id="path1869"
       style="stroke:none;stroke-width:0.5;stroke-dasharray:none;fill:#89b264" /><path
       d="m 18.354,50.536 -1.882,-1.831 -1.934,2.098 4.045,3.935 6.431,-7.816 -2.148,-1.866 z m 5.27,-3.498 -5.122,6.225 -2.568,-2.497 0.578,-0.627 1.925,1.872 4.549,-5.528 z"
       id="path1871"
       style="stroke:none;stroke-width:0.5;stroke-dasharray:none;fill:#89b264" /><path
       d="m 24.518,8.351 v 9.148 h 9.148 c 0,-5.052 -4.096,-9.148 -9.148,-9.148 z m 1,1.061 c 3.695,0.454 6.633,3.391 7.087,7.087 h -7.087 z"
       id="path1873"
       style="stroke:none;stroke-width:0.5;stroke-dasharray:none;fill:#89b264" /></g><path
     style="fill:none;stroke:#ff0004;stroke-width:1;stroke-linecap:butt;stroke-linejoin:miter;stroke-opacity:1;marker-start:url(#marker1607);marker-mid:url(#Dot);marker-end:url(#marker1661);stroke-dasharray:none"
     d="M 32.559534,87.565999 81.181534,39.692998 107.46302,107.788 146.27854,37.162998"
     id="path760"
     sodipodi:nodetypes="cccc" /></svg>
